<svg width="74" height="65" viewBox="0 0 74 65" fill="none" xmlns="http://www.w3.org/2000/svg">
<path d="M30.2095 56.5947C40.8694 56.5947 49.5105 58.268 49.5105 60.3298C49.5105 62.3888 40.8694 64.0621 30.2095 64.0621C19.5496 64.0621 10.9084 62.3888 10.9084 60.3298C10.9084 58.268 19.5496 56.5947 30.2095 56.5947Z" fill="#F59D01"/>
<path d="M10.9084 60.3314H49.5105V53.7769H10.9084V60.3314Z" fill="#F59D01"/>
<path d="M10.9084 53.7786C10.9084 55.8404 19.5496 57.5109 30.2095 57.5109C40.8694 57.5109 49.5105 55.8404 49.5105 53.7786C49.5105 51.7168 40.8694 50.0435 30.2095 50.0435C19.5496 50.0435 10.9084 51.7168 10.9084 53.7786Z" fill="#FCB72B"/>
<path d="M15.5504 54.1027C15.5504 55.6677 22.1159 56.9359 30.2128 56.9359C38.3097 56.9359 44.8754 55.6677 44.8754 54.1027C44.8754 54.0472 44.8693 53.9917 44.8505 53.9362C44.4111 55.4291 38.0274 56.6085 30.2128 56.6085C22.3982 56.6085 16.0148 55.4291 15.5754 53.9362C15.5565 53.9917 15.5504 54.0472 15.5504 54.1027Z" fill="#FFC285"/>
<path d="M15.5743 53.9366C16.0137 55.4296 22.3972 56.6089 30.2117 56.6089C38.0263 56.6089 44.41 55.4296 44.8494 53.9366C44.41 52.4493 38.0263 51.2671 30.2117 51.2671C22.3972 51.2671 16.0137 52.4493 15.5743 53.9366Z" fill="#DD9624"/>
<path d="M15.5504 53.7732C15.5504 53.8426 15.5627 53.912 15.5943 53.9786C16.128 52.5078 22.4671 51.3451 30.2128 51.3451C37.9583 51.3451 44.2978 52.5078 44.8316 53.9786C44.8629 53.912 44.8754 53.8426 44.8754 53.7732C44.8754 52.2081 38.3097 50.94 30.2128 50.94C22.1159 50.94 15.5504 52.2081 15.5504 53.7732Z" fill="#A36F40"/>
<path d="M30.8116 55.1783V54.8342C31.8366 54.8314 32.8973 54.7676 33.5153 54.6843L33.0916 54.454C32.4554 54.5373 31.536 54.6011 30.5467 54.6011C29.292 54.6011 28.4439 54.4623 28.4439 54.2653C28.4439 54.0794 29.133 53.9628 30.4408 53.8602C32.2432 53.7242 33.3562 53.566 33.3562 53.2691C33.3562 52.9861 32.3138 52.7696 30.6878 52.7169V52.3728H29.5927V52.7058C28.5323 52.7113 27.8077 52.7668 27.2948 52.8251L27.7374 53.0499C28.1079 53.0083 28.8323 52.9333 29.9632 52.9333C31.3245 52.9333 31.8367 53.0915 31.8367 53.2275C31.8367 53.4051 31.1828 53.4939 29.6454 53.616C27.8251 53.7603 26.9061 53.9379 26.9061 54.2431C26.9061 54.5123 27.8785 54.7648 29.6985 54.8231V55.1783H30.8116Z" fill="#FCD183"/>
<path d="M20.7141 49.4238C31.3738 49.4238 40.0152 51.0943 40.0152 53.1562C40.0152 55.218 31.3738 56.8885 20.7141 56.8885C10.0545 56.8885 1.41307 55.218 1.41307 53.1562C1.41307 51.0943 10.0545 49.4238 20.7141 49.4238Z" fill="#F59D01"/>
<path d="M1.41307 53.1577H40.0152V46.6033H1.41307V53.1577Z" fill="#F59D01"/>
<path d="M1.41307 46.6023C1.41307 48.6641 10.0545 50.3346 20.7141 50.3346C31.3738 50.3346 40.0152 48.6641 40.0152 46.6023C40.0152 44.5405 31.3738 42.8699 20.7141 42.8699C10.0545 42.8699 1.41307 44.5405 1.41307 46.6023Z" fill="#FCB72B"/>
<path d="M6.0411 46.9306C6.0411 48.4957 12.6066 49.7666 20.7037 49.7666C28.8006 49.7666 35.3664 48.4957 35.3664 46.9306C35.3664 46.8751 35.36 46.8224 35.3411 46.7669C34.9018 48.257 28.5183 49.4392 20.7037 49.4392C12.8892 49.4392 6.50572 48.257 6.06634 46.7669C6.04747 46.8224 6.0411 46.8751 6.0411 46.9306Z" fill="#FFC285"/>
<path d="M6.07101 46.766C6.5104 48.2562 12.8938 49.4383 20.7084 49.4383C28.523 49.4383 34.9064 48.2562 35.3458 46.766C34.9064 45.2758 28.523 44.0937 20.7084 44.0937C12.8938 44.0937 6.5104 45.2758 6.07101 46.766Z" fill="#DD9624"/>
<path d="M6.0411 46.6033C6.0411 46.6727 6.0536 46.7393 6.08521 46.8059C6.61869 45.3352 12.9583 44.1752 20.7037 44.1752C28.4495 44.1752 34.789 45.3352 35.3223 46.8059C35.3539 46.7393 35.3664 46.6727 35.3664 46.6033C35.3664 45.0382 28.8006 43.7673 20.7037 43.7673C12.6066 43.7673 6.0411 45.0382 6.0411 46.6033Z" fill="#A36F40"/>
<path d="M21.3111 48.0082V47.6614C22.3364 47.6586 23.3968 47.5975 24.015 47.5115L23.5911 47.284C22.9552 47.3644 22.0355 47.431 21.0464 47.431C19.7918 47.431 18.9434 47.2895 18.9434 47.0953C18.9434 46.9066 19.6327 46.79 20.9408 46.6873C22.743 46.5514 23.856 46.3932 23.856 46.0963C23.856 45.8132 22.8133 45.5968 21.1876 45.5468V45.2027H20.0924V45.533C19.0321 45.5413 18.3077 45.594 17.7945 45.6523L18.2371 45.8771C18.6074 45.8382 19.332 45.7633 20.463 45.7633C21.8242 45.7633 22.3364 45.9187 22.3364 46.0547C22.3364 46.235 21.6824 46.3238 20.1451 46.4459C18.3249 46.5902 17.4061 46.7678 17.4061 47.0703C17.4061 47.3422 18.378 47.5948 20.1981 47.653V48.0082H21.3111Z" fill="#FCD183"/>
<path d="M31.3494 42.3109C42.009 42.3109 50.6507 43.9814 50.6507 46.0432C50.6507 48.105 42.009 49.7756 31.3494 49.7756C20.6897 49.7756 12.0483 48.105 12.0483 46.0432C12.0483 43.9814 20.6897 42.3109 31.3494 42.3109Z" fill="#F59D01"/>
<path d="M12.0483 46.0412H50.6507V39.4867H12.0483V46.0412Z" fill="#F59D01"/>
<path d="M12.0483 39.4874C12.0483 41.5492 20.6897 43.2197 31.3494 43.2197C42.009 43.2197 50.6507 41.5492 50.6507 39.4874C50.6507 37.4256 42.009 35.7551 31.3494 35.7551C20.6897 35.7551 12.0483 37.4256 12.0483 39.4874Z" fill="#FCB72B"/>
<path d="M16.6849 39.8163C16.6849 41.3814 23.2505 42.6523 31.3476 42.6523C39.4447 42.6523 46.0102 41.3814 46.0102 39.8163C46.0102 39.7608 46.0041 39.7081 45.9852 39.6526C45.5458 41.1428 39.1624 42.3249 31.3476 42.3249C23.5333 42.3249 17.1496 41.1428 16.7102 39.6526C16.6913 39.7081 16.6849 39.7608 16.6849 39.8163Z" fill="#FFC285"/>
<path d="M16.7076 39.6497C17.147 41.1399 23.5307 42.322 31.345 42.322C39.1599 42.322 45.5433 41.1399 45.9827 39.6497C45.5433 38.1596 39.1599 36.9774 31.345 36.9774C23.5307 36.9774 17.147 38.1596 16.7076 39.6497Z" fill="#C98A1B"/>
<path d="M16.6849 39.4875C16.6849 39.5569 16.6977 39.6235 16.7291 39.6901C17.2625 38.2193 23.6021 37.0594 31.3476 37.0594C39.0931 37.0594 45.4326 38.2193 45.9664 39.6901C45.9975 39.6235 46.0102 39.5569 46.0102 39.4875C46.0102 37.9224 39.4447 36.6515 31.3476 36.6515C23.2505 36.6515 16.6849 37.9224 16.6849 39.4875Z" fill="#A36F40"/>
<path d="M31.9477 40.8917V40.5449C32.973 40.5421 34.0336 40.481 34.6514 40.395L34.2279 40.1647C33.5917 40.2479 32.6726 40.3118 31.683 40.3118C30.4286 40.3118 29.5799 40.173 29.5799 39.9788C29.5799 39.7901 30.2693 39.6735 31.5771 39.5708C33.3795 39.4349 34.4926 39.2767 34.4926 38.9798C34.4926 38.6967 33.4501 38.4803 31.8242 38.4303V38.0834H30.7293V38.4164C29.6684 38.422 28.9443 38.4775 28.4311 38.5358L28.8734 38.7605C29.2442 38.7217 29.9686 38.644 31.0995 38.644C32.4608 38.644 32.973 38.8022 32.973 38.9381C32.973 39.1157 32.3192 39.2045 30.7817 39.3294C28.9614 39.4737 28.0427 39.6513 28.0427 39.9538C28.0427 40.223 29.0146 40.4782 30.8351 40.5337V40.8917H31.9477Z" fill="#FCD183"/>
<path d="M33.2386 35.1379C43.8982 35.1379 52.5396 36.8085 52.5396 38.8703C52.5396 40.9321 43.8982 42.6026 33.2386 42.6026C22.5789 42.6026 13.9373 40.9321 13.9373 38.8703C13.9373 36.8085 22.5789 35.1379 33.2386 35.1379Z" fill="#F59D01"/>
<path d="M13.9373 38.8702H52.5396V32.3184H13.9373V38.8702Z" fill="#F59D01"/>
<path d="M13.9373 32.3173C13.9373 34.3764 22.5787 36.0497 33.2386 36.0497C43.8982 36.0497 52.5396 34.3764 52.5396 32.3173C52.5396 30.2555 43.8982 28.5822 33.2386 28.5822C22.5787 28.5822 13.9373 30.2555 13.9373 32.3173Z" fill="#FCB72B"/>
<path d="M18.5759 32.6414C18.5759 34.2093 25.1415 35.4774 33.2386 35.4774C41.3355 35.4774 47.9012 34.2093 47.9012 32.6414C47.9012 32.5887 47.8946 32.5332 47.8762 32.4777C47.4369 33.9706 41.0529 35.15 33.2386 35.15C25.4238 35.15 19.0406 33.9706 18.6012 32.4777C18.5823 32.5332 18.5759 32.5887 18.5759 32.6414Z" fill="#FFC285"/>
<path d="M18.6045 32.4788C19.0439 33.9717 25.4271 35.1511 33.2419 35.1511C41.0563 35.1511 47.4402 33.9717 47.8796 32.4788C47.4402 30.9914 41.0563 29.8092 33.2419 29.8092C25.4271 29.8092 19.0439 30.9914 18.6045 32.4788Z" fill="#C98A1B"/>
<path d="M18.5759 32.3147C18.5759 32.384 18.5885 32.4534 18.6201 32.52C19.1533 31.0493 25.4929 29.8866 33.2386 29.8866C40.9841 29.8866 47.3236 31.0493 47.8571 32.52C47.8885 32.4534 47.9012 32.384 47.9012 32.3147C47.9012 30.7496 41.3355 29.4814 33.2386 29.4814C25.1415 29.4814 18.5759 30.7496 18.5759 32.3147Z" fill="#A36F40"/>
<path d="M33.8412 33.719V33.3749C34.8665 33.3693 35.9269 33.3083 36.5449 33.225L36.1212 32.9947C35.4853 33.078 34.5656 33.1418 33.5766 33.1418C32.3219 33.1418 31.4735 33.0003 31.4735 32.806C31.4735 32.6201 32.1626 32.5036 33.4707 32.4009C35.2731 32.2621 36.3861 32.1067 36.3861 31.8098C36.3861 31.524 35.3434 31.3103 33.7175 31.2576V30.9135H32.6223V31.2437C31.562 31.252 30.8376 31.3075 30.3247 31.3658L30.767 31.5906C31.1375 31.549 31.8622 31.474 32.9931 31.474C34.3544 31.474 34.8665 31.6322 34.8665 31.7682C34.8665 31.9458 34.2125 32.0346 32.675 32.1567C30.855 32.301 29.9363 32.4786 29.9363 32.7838C29.9363 33.053 30.9079 33.3055 32.7282 33.3638V33.719H33.8412Z" fill="#FCD183"/>
<path d="M33.2411 64.0586L33.2333 64.0114C33.8694 63.992 34.4953 63.967 35.1092 63.9365C33.9795 64.017 33.2411 64.0586 33.2411 64.0586ZM42.232 63.2455C43.6734 63.0235 44.9474 62.7627 46.0095 62.4685C45.2459 62.7682 43.8403 63.0263 42.232 63.2455ZM49.2442 60.9478C49.4194 60.7453 49.5106 60.5372 49.5106 60.3263V53.7718V60.7703C49.5106 60.7703 49.4297 60.8313 49.2442 60.9478ZM46.936 51.907C46.763 51.8487 46.5822 51.7932 46.3937 51.7349L46.4097 51.7322C46.5961 51.7904 46.7714 51.8487 46.936 51.907ZM40.0105 50.5556H40.0103V49.7092H40.0292C40.0201 49.909 40.0115 50.1893 40.0105 50.5556Z" fill="url(#paint0_linear)"/>
<path d="M40.0342 49.7144H40.0153V49.3789C40.0283 49.3789 40.042 49.3762 40.0551 49.3762C40.0509 49.4261 40.0423 49.537 40.0342 49.7144Z" fill="#D1D3D4"/>
<path d="M33.237 64.017L32.5996 60.3318H49.5143C49.5143 60.5427 49.4232 60.7508 49.248 60.9534C48.8206 61.217 47.8381 61.7609 46.0154 62.4741C46.0147 62.4741 46.014 62.4741 46.0132 62.4741C44.9512 62.7682 43.6771 63.0291 42.2357 63.2511C39.8204 63.5785 36.9494 63.8116 35.1129 63.942C34.4991 63.9726 33.8732 63.9975 33.237 64.017Z" fill="#B88220"/>
<path d="M49.5137 60.3314H32.599L32.1084 57.4898C41.8786 57.3067 49.5137 55.7139 49.5137 53.7769V60.3314Z" fill="#B88220"/>
<path d="M32.1064 57.4903L32.0074 56.9187C39.2569 56.7466 44.8733 55.5506 44.8733 54.1048C44.8733 54.0493 44.8672 53.9938 44.8483 53.9383C44.8478 53.9383 44.8476 53.9383 44.8471 53.9356C44.8655 53.8828 44.8733 53.8301 44.8733 53.7746C44.8733 52.9393 42.9964 52.1846 40.0114 51.6656V50.5612H40.0117C40.0114 50.5834 40.0114 50.6084 40.0114 50.6333C41.4624 50.7665 42.6921 50.9303 43.7336 51.1134L44.6136 52.0153L46.3949 51.7406C46.5833 51.7988 46.7642 51.8543 46.9372 51.9126C49.5122 52.82 49.5117 53.7774 49.5117 53.7774C49.5117 55.7143 41.8765 57.3071 32.1064 57.4903Z" fill="#CF9724"/>
<path d="M32.0042 56.918L31.9476 56.5905C38.9501 56.4296 44.4388 55.3168 44.8451 53.9376C44.864 53.9931 44.8701 54.0486 44.8701 54.1041C44.8701 55.5499 39.2537 56.7459 32.0042 56.918Z" fill="#D1A16F"/>
<path d="M31.9476 56.59L31.8805 56.2015C36.7995 55.5244 40.0082 54.4144 40.0082 53.1574V52.0724C42.7477 52.5497 44.5523 53.224 44.8263 53.9788C44.8331 53.9649 44.839 53.9483 44.8439 53.9344C44.8444 53.9372 44.8446 53.9371 44.8451 53.9371C44.4388 55.3163 38.9501 56.4291 31.9476 56.59Z" fill="#B57C1E"/>
<path d="M44.8333 53.9785C44.5593 53.2237 42.7547 52.5494 40.0153 52.0721V51.6642C43.0003 52.1831 44.8772 52.9379 44.8772 53.7732C44.8772 53.8287 44.8693 53.8814 44.8509 53.9341C44.846 53.948 44.8401 53.9646 44.8333 53.9785Z" fill="#865C35"/>
<path d="M31.8815 56.2006L31.3554 53.1564H40.0093C40.0093 54.4135 36.8005 55.5235 31.8815 56.2006Z" fill="#B88220"/>
<path d="M40.0093 53.1577H31.3554L30.7731 49.7889C30.815 49.7833 30.8562 49.7806 30.8979 49.775C31.0474 49.775 31.1978 49.775 31.3481 49.775C34.4625 49.775 37.4046 49.6335 40.0093 49.3782V49.714V50.5603V51.6648V52.0727V53.1577Z" fill="#B88220"/>
<path d="M30.7758 49.7896L30.7731 49.7729C30.8158 49.7757 30.8578 49.7757 30.9007 49.7757C30.859 49.7812 30.8178 49.784 30.7758 49.7896Z" fill="#CF9724"/>
<path d="M41.1073 49.2642C41.3558 49.2364 41.6006 49.2059 41.8417 49.1754L41.8684 49.2031L41.1073 49.2642Z" fill="#D1D3D4"/>
<path d="M31.3444 49.7756C31.1941 49.7756 31.0437 49.7756 30.8942 49.7756C30.8513 49.7756 30.8094 49.7756 30.7668 49.7728L30.1218 46.0432H38.7808L41.8376 49.1762C41.5965 49.2067 41.3517 49.2372 41.1032 49.265L40.048 49.3482C40.048 49.3482 40.047 49.3566 40.0453 49.376C40.0323 49.376 40.0186 49.3788 40.0056 49.3788C37.4009 49.634 34.4588 49.7756 31.3444 49.7756Z" fill="#B88220"/>
<path d="M38.7824 46.0412H30.1234L29.6332 43.2052C30.1974 43.2135 30.7688 43.2191 31.3459 43.2191C32.9243 43.2191 34.4579 43.183 35.9263 43.1136L38.7824 46.0412Z" fill="#B88220"/>
<path d="M31.3473 43.2197C30.7702 43.2197 30.1987 43.2142 29.6346 43.2059L29.5349 42.6287C30.1289 42.6425 30.7335 42.6509 31.3473 42.6509C32.3106 42.6509 33.2516 42.6314 34.163 42.5981C34.5806 42.5954 34.9952 42.587 35.4054 42.5787L35.9276 43.1143C34.4593 43.1837 32.9257 43.2197 31.3473 43.2197Z" fill="#CF9724"/>
<path d="M31.348 42.6524C30.7342 42.6524 30.1296 42.6441 29.5356 42.6302L29.5189 42.5331C30.7229 42.5803 31.9675 42.6025 33.2401 42.6025C33.5498 42.6025 33.8576 42.6025 34.1637 42.5997C33.2523 42.633 32.3113 42.6524 31.348 42.6524Z" fill="#D1A16F"/>
<path d="M33.2426 42.6026C31.97 42.6026 30.7254 42.5804 29.5214 42.5332L28.8882 38.8703H31.7896L35.4086 42.5804C34.9984 42.5887 34.5837 42.5971 34.1662 42.5998C33.8601 42.6026 33.5523 42.6026 33.2426 42.6026Z" fill="#B88220"/>
<path d="M31.7927 38.8702H28.8913L28.383 35.9315C28.5715 35.9398 28.7592 35.9481 28.9496 35.9565L31.7927 38.8702Z" fill="#B88220"/>
<path d="M28.9478 35.9543C28.7574 35.946 28.5697 35.9376 28.3812 35.9293L28.282 35.3521C28.3094 35.3549 28.3374 35.3549 28.3651 35.3577L28.9478 35.9543Z" fill="#CF9724"/>
<path d="M44.6097 52.0139L68.8435 48.2787L45.8514 30.2858L26.9081 33.8711L44.6097 52.0139Z" fill="#456C89"/>
<path d="M30.2162 35.7954L43.8466 49.4677C45.2373 49.2568 46.9297 49.5703 47.6435 50.1697L62.7232 47.8193C61.8981 47.2227 62.2834 46.5706 63.5706 46.3597L46.6042 32.7818C45.5434 32.9843 44.1608 32.6624 43.5268 32.0603L31.365 34.3274C31.8882 34.9324 31.3804 35.5873 30.2162 35.7954Z" fill="#69B7A4"/>
<path d="M39.124 39.7302L40.7264 40.0077C41.2918 39.547 42.1382 39.1141 42.856 38.9032L43.694 39.2806C42.9824 39.5026 42.1977 39.8689 41.6731 40.3185C41.0021 40.8873 41.2126 41.3868 42.1453 41.545C43.0496 41.6976 43.9695 41.4784 45.1357 40.9678C46.697 40.2574 47.9926 39.88 49.4058 40.1214C50.7636 40.3518 51.3118 41.0011 50.7935 41.7864L52.4952 42.0667L51.9828 42.5662L50.337 42.2942C49.7915 42.7715 49.1656 43.0574 48.6228 43.2433L47.7191 42.8576C48.1068 42.7216 48.8355 42.4552 49.3874 41.939C50.0442 41.3202 49.5278 40.9567 48.8681 40.8457C48.0136 40.7014 47.2635 40.929 45.8986 41.5256C44.2672 42.236 42.9189 42.5107 41.439 42.2609C40.1341 42.0417 39.4553 41.3952 40.1733 40.521L38.5111 40.2352L39.124 39.7302Z" fill="#456E89"/>
<path d="M33.2386 28.0127C43.8982 28.0127 52.5396 29.6833 52.5396 31.7451C52.5396 33.8069 43.8982 35.4774 33.2386 35.4774C22.5789 35.4774 13.9373 33.8069 13.9373 31.7451C13.9373 29.6833 22.5789 28.0127 33.2386 28.0127Z" fill="#F59D01"/>
<path d="M13.9373 31.745H52.5396V25.1905H13.9373V31.745Z" fill="#F59D01"/>
<path d="M13.9373 25.1912C13.9373 27.253 22.5787 28.9235 33.2386 28.9235C43.8982 28.9235 52.5396 27.253 52.5396 25.1912C52.5396 23.1294 43.8982 21.4588 33.2386 21.4588C22.5787 21.4588 13.9373 23.1294 13.9373 25.1912Z" fill="#FCB72B"/>
<path d="M18.5759 25.5176C18.5759 27.0854 25.1415 28.3536 33.2386 28.3536C41.3355 28.3536 47.9012 27.0854 47.9012 25.5176C47.9012 25.4648 47.8946 25.4093 47.8762 25.3538C47.4369 26.844 41.0529 28.0261 33.2386 28.0261C25.4238 28.0261 19.0406 26.844 18.6012 25.3538C18.5823 25.4093 18.5759 25.4648 18.5759 25.5176Z" fill="#FFC285"/>
<path d="M18.6045 25.3542C19.0439 26.8444 25.4271 28.0266 33.2419 28.0266C41.0563 28.0266 47.4402 26.8444 47.8796 25.3542C47.4402 23.8641 41.0563 22.6819 33.2419 22.6819C25.4271 22.6819 19.0439 23.8641 18.6045 25.3542Z" fill="#C98A1B"/>
<path d="M18.5759 25.1915C18.5759 25.2609 18.5885 25.3303 18.6201 25.3969C19.1533 23.9233 25.4929 22.7634 33.2386 22.7634C40.9841 22.7634 47.3236 23.9233 47.8571 25.3969C47.8885 25.3303 47.9012 25.2609 47.9012 25.1915C47.9012 23.6264 41.3355 22.3555 33.2386 22.3555C25.1415 22.3555 18.5759 23.6264 18.5759 25.1915Z" fill="#A36F40"/>
<path d="M33.8415 26.5966V26.2525C34.8668 26.2469 35.9271 26.1859 36.5452 26.0998L36.1215 25.8723C35.4856 25.9528 34.5659 26.0194 33.5768 26.0194C32.3221 26.0194 31.4738 25.8778 31.4738 25.6836C31.4738 25.4949 32.1631 25.3783 33.471 25.2757C35.2733 25.1397 36.3864 24.9843 36.3864 24.6846C36.3864 24.4016 35.3437 24.1879 33.7177 24.1352V23.7911H32.6226V24.1213C31.5622 24.1296 30.8381 24.1823 30.3249 24.2406L30.7673 24.4682C31.1378 24.4265 31.8624 24.3516 32.9933 24.3516C34.3546 24.3516 34.8668 24.507 34.8668 24.6458C34.8668 24.8234 34.2125 24.9122 32.6755 25.0343C30.8552 25.1786 29.9363 25.3562 29.9363 25.6586C29.9363 25.9306 30.9082 26.1831 32.7284 26.2414V26.5966H33.8415Z" fill="#FCD183"/>
<path d="M31.3494 20.8427C42.009 20.8427 50.6507 22.5132 50.6507 24.575C50.6507 26.6368 42.009 28.3074 31.3494 28.3074C20.6897 28.3074 12.0483 26.6368 12.0483 24.575C12.0483 22.5132 20.6897 20.8427 31.3494 20.8427Z" fill="#F59D01"/>
<path d="M12.0483 24.574H50.6507V18.0195H12.0483V24.574Z" fill="#F59D01"/>
<path d="M12.0483 18.0198C12.0483 20.0816 20.6897 21.7521 31.3494 21.7521C42.009 21.7521 50.6507 20.0816 50.6507 18.0198C50.6507 15.958 42.009 14.2875 31.3494 14.2875C20.6897 14.2875 12.0483 15.958 12.0483 18.0198Z" fill="#FCB72B"/>
<path d="M16.685 18.3489C16.685 19.9139 23.2505 21.1849 31.3476 21.1849C39.4448 21.1849 46.0103 19.9139 46.0103 18.3489C46.0103 18.2934 46.0041 18.2379 45.9853 18.1851C45.5459 19.6753 39.1625 20.8547 31.3476 20.8547C23.5333 20.8547 17.1496 19.6753 16.7102 18.1851C16.6914 18.2379 16.685 18.2934 16.685 18.3489Z" fill="#FFC285"/>
<path d="M16.7076 18.1853C17.147 19.6755 23.5307 20.8549 31.345 20.8549C39.1598 20.8549 45.5432 19.6755 45.9826 18.1853C45.5432 16.6952 39.1598 15.513 31.345 15.513C23.5307 15.513 17.147 16.6952 16.7076 18.1853Z" fill="#C98A1B"/>
<path d="M16.685 18.0192C16.685 18.0886 16.6977 18.1552 16.7291 18.2218C17.2626 16.7511 23.6022 15.5884 31.3476 15.5884C39.0931 15.5884 45.4327 16.7511 45.9664 18.2218C45.9975 18.1552 46.0103 18.0886 46.0103 18.0192C46.0103 16.4514 39.4448 15.1832 31.3476 15.1832C23.2505 15.1832 16.685 16.4514 16.685 18.0192Z" fill="#A36F40"/>
<path d="M31.9477 19.4229V19.0788C32.973 19.076 34.0336 19.0149 34.6516 18.9289L34.2279 18.6986C33.5917 18.7818 32.6723 18.8457 31.683 18.8457C30.4283 18.8457 29.5799 18.7069 29.5799 18.5127C29.5799 18.324 30.2695 18.2074 31.5774 18.1047C33.3795 17.9688 34.4926 17.8106 34.4926 17.5137C34.4926 17.2306 33.4501 17.0142 31.8242 16.9642V16.6174H30.7293V16.9504C29.6687 16.9559 28.9443 17.0114 28.4311 17.0697L28.8734 17.2944C29.2442 17.2528 29.9686 17.1779 31.0995 17.1779C32.4608 17.1779 32.973 17.3361 32.973 17.4721C32.973 17.6496 32.3192 17.7384 30.7817 17.8605C28.9614 18.0048 28.0427 18.1824 28.0427 18.4877C28.0427 18.7569 29.0146 19.0094 30.8349 19.0677V19.4229H31.9477Z" fill="#FCD183"/>
<path d="M12.0485 41.5358C11.915 41.2721 12.0485 41.15 12.0485 41.15V41.5358ZM12.0485 39.4878C12.0485 39.4878 12.0037 39.3408 12.1554 39.0938C12.0848 39.2214 12.0485 39.3546 12.0485 39.4878ZM13.5816 38.0282C13.8477 37.8922 13.8879 37.8034 13.8879 37.8034L13.9403 30.9132V31.7457C13.9403 31.8428 13.959 31.9371 13.9957 32.0315C13.959 32.1258 13.9403 32.2202 13.9403 32.3173V37.8756C13.8149 37.9255 13.6953 37.9755 13.5816 38.0282Z" fill="#CA9966"/>
<path d="M16.9048 43.5414C15.8915 43.5414 14.9836 43.4221 14.3271 43.1113C12.7425 42.3648 12.2069 41.8514 12.0483 41.5379V41.1521V39.4899C12.0483 40.9301 16.2674 42.1816 22.4467 42.8032C20.809 43.1668 18.6932 43.5414 16.9048 43.5414Z" fill="#B88220"/>
<path d="M22.4467 42.8026C16.2674 42.181 12.0483 40.9295 12.0483 39.4893C12.0483 39.3561 12.0846 39.2229 12.1552 39.0953C12.3081 38.8455 12.6605 38.4931 13.4591 38.0852C13.5044 38.0657 13.5449 38.0463 13.5814 38.0297C13.6951 37.9769 13.8147 37.927 13.9401 37.877V38.8705C13.9401 39.9028 16.0974 40.8352 19.5857 41.5095C20.8681 41.8425 22.5193 42.12 24.4216 42.317C23.9433 42.4446 23.253 42.6222 22.4467 42.8026Z" fill="#CF9724"/>
<path d="M24.4222 42.3165C22.5198 42.1194 20.8686 41.842 19.5862 41.509C21.0855 41.8003 22.8295 42.0418 24.7549 42.2249C24.6599 42.2499 24.5484 42.2804 24.4222 42.3165Z" fill="#D1A16F"/>
<path d="M24.7516 42.2241C22.8262 42.0409 21.0821 41.7995 19.5829 41.5081C16.0945 40.8338 13.9373 39.9014 13.9373 38.8691H26.4853L25.1263 42.1158C25.1263 42.1158 24.9917 42.1575 24.7516 42.2241Z" fill="#B88220"/>
<path d="M26.4853 38.8702H13.9373V32.3185C13.9373 34.0084 19.7542 35.4375 27.731 35.8954L26.4853 38.8702Z" fill="#B88220"/>
<path d="M27.731 35.8938C19.7542 35.4359 13.9373 34.0068 13.9373 32.3169C13.9373 32.2197 13.9559 32.1254 13.9927 32.031C14.61 33.6128 20.3229 34.917 27.9643 35.336L27.731 35.8938Z" fill="#CF9724"/>
<path d="M27.9643 35.3369C20.3229 34.9178 14.61 33.6136 13.9927 32.0319C13.9559 31.9375 13.9373 31.8432 13.9373 31.746H29.4679L27.9643 35.3369Z" fill="#B88220"/>
<path d="M29.4679 31.745H13.9373V30.9125L19.7588 27.8628C22.6583 28.4095 26.4454 28.7813 30.6633 28.8923L29.4679 31.745Z" fill="#B88220"/>
<path d="M30.6642 28.8923C26.4463 28.7813 22.6592 28.4094 19.7597 27.8628L20.2167 27.6241C23.127 28.0209 26.633 28.2679 30.4243 28.3012C30.5833 28.3068 30.7428 28.3123 30.9039 28.3179L30.6642 28.8923Z" fill="#CF9724"/>
<path d="M30.9051 28.3177C30.7441 28.3121 30.5846 28.3066 30.4255 28.301C30.587 28.3038 30.748 28.3038 30.9105 28.3038L30.9051 28.3177Z" fill="#D1A16F"/>
<path d="M30.9109 28.3054C30.7484 28.3054 30.5874 28.3054 30.4259 28.3026C26.6347 28.2693 23.1287 28.0224 20.2184 27.6256L26.0407 24.5759H32.4734L30.9109 28.3054Z" fill="#B88220"/>
<path d="M32.4741 24.574H26.0414L31.428 21.7518C32.1852 21.7518 32.9324 21.7407 33.6668 21.7241L32.4741 24.574Z" fill="#B88220"/>
<path d="M31.4292 21.7521L32.505 21.1888C32.75 21.1888 32.9958 21.1916 33.2431 21.1916C33.4604 21.1916 33.6771 21.1916 33.8925 21.1888L33.668 21.7244C32.9336 21.741 32.1864 21.7521 31.4292 21.7521Z" fill="#CF9724"/>
<path d="M21.5019 33.9789L0 30.6656L20.4001 14.7012L37.208 17.8786L21.5019 33.9789Z" fill="#456C89"/>
<path d="M34.2836 19.5857L22.1898 31.7179C20.9557 31.5292 19.4543 31.8095 18.8208 32.3395L5.44128 30.2555C6.17302 29.7255 5.83141 29.1483 4.68921 28.9623L19.743 16.9134C20.6842 17.0938 21.911 16.808 22.4736 16.2752L33.2644 18.2842C32.8 18.8226 33.2507 19.4026 34.2836 19.5857Z" fill="#69B7A4"/>
<path d="M14.5082 23.5248L15.9829 23.7801C15.346 24.5543 15.9481 25.1287 17.106 25.323C18.419 25.5422 19.6154 25.3008 21.0629 24.6709C22.2737 24.1381 22.9396 23.9383 23.6978 24.0687C24.2829 24.1658 24.7412 24.4877 24.1585 25.0372C23.6688 25.495 23.0221 25.7309 22.6781 25.853L23.4801 26.1943C23.9617 26.0306 24.517 25.7753 25.001 25.3535L26.461 25.5949L26.9161 25.1509L25.406 24.9012C25.866 24.2047 25.3793 23.6275 24.1746 23.4249C22.9209 23.2112 21.7714 23.547 20.3858 24.1742C19.3512 24.6292 18.5347 24.8207 17.7326 24.6875C16.9051 24.546 16.7181 24.102 17.3136 23.597C17.7792 23.2001 18.4754 22.8755 19.1066 22.6784L18.3631 22.3427C17.7265 22.5314 16.9754 22.9143 16.4735 23.325L15.052 23.0753L14.5082 23.5248Z" fill="#456E89"/>
<path d="M33.2386 13.7282C43.8982 13.7282 52.5396 15.3987 52.5396 17.4605C52.5396 19.5196 43.8982 21.1929 33.2386 21.1929C22.5789 21.1929 13.9373 19.5196 13.9373 17.4605C13.9373 15.3987 22.5789 13.7282 33.2386 13.7282Z" fill="#F59D01"/>
<path d="M13.9373 17.4618H52.5396V10.9073H13.9373V17.4618Z" fill="#F59D01"/>
<path d="M13.9373 10.9043C13.9373 12.9661 22.5787 14.6367 33.2386 14.6367C43.8982 14.6367 52.5396 12.9661 52.5396 10.9043C52.5396 8.84252 43.8982 7.17198 33.2386 7.17198C22.5787 7.17198 13.9373 8.84252 13.9373 10.9043Z" fill="#FCB72B"/>
<path d="M18.5759 11.2328C18.5759 12.7979 25.1415 14.066 33.2386 14.066C41.3355 14.066 47.9012 12.7979 47.9012 11.2328C47.9012 11.1773 47.8949 11.1218 47.876 11.0691C47.4366 12.5592 41.0532 13.7386 33.2386 13.7386C25.4238 13.7386 19.0403 12.5592 18.6009 11.0691C18.5821 11.1218 18.5759 11.1773 18.5759 11.2328Z" fill="#FFC285"/>
<path d="M18.6045 11.0702C19.0439 12.5603 25.4274 13.7397 33.2422 13.7397C41.0568 13.7397 47.4402 12.5603 47.8796 11.0702C47.4402 9.58 41.0568 8.39786 33.2422 8.39786C25.4274 8.39786 19.0439 9.58 18.6045 11.0702Z" fill="#C98A1B"/>
<path d="M18.5759 10.9044C18.5759 10.9737 18.5885 11.0403 18.6201 11.1069C19.1533 9.6362 25.4931 8.47349 33.2386 8.47349C40.9841 8.47349 47.3236 9.6362 47.8571 11.1069C47.8885 11.0403 47.9012 10.9737 47.9012 10.9044C47.9012 9.33651 41.3355 8.06834 33.2386 8.06834C25.1415 8.06834 18.5759 9.33651 18.5759 10.9044Z" fill="#A36F40"/>
<path d="M33.8412 12.3057V11.9616C34.8665 11.9588 35.9269 11.8977 36.5449 11.8117L36.1212 11.5814C35.4853 11.6646 34.5656 11.7285 33.5766 11.7285C32.3219 11.7285 31.4735 11.5897 31.4735 11.3955C31.4735 11.2068 32.1626 11.0902 33.4707 10.9876C35.2731 10.8516 36.3861 10.6934 36.3861 10.3965C36.3861 10.1134 35.3434 9.89698 33.7175 9.84704V9.50016H32.6223V9.83316C31.562 9.83871 30.8376 9.89422 30.3247 9.95249L30.767 10.1773C31.1375 10.1356 31.8622 10.0607 32.9931 10.0607C34.3544 10.0607 34.8665 10.2189 34.8665 10.3549C34.8665 10.5325 34.2125 10.6213 32.675 10.7434C30.855 10.8877 29.9363 11.0652 29.9363 11.3705C29.9363 11.6397 30.9079 11.8922 32.7282 11.9505V12.3057H33.8412Z" fill="#FCD183"/>
<path d="M52.5411 35.5183L50.5554 33.9643C51.8268 33.4676 52.5411 32.9071 52.5411 32.316V35.5183Z" fill="#B88220"/>
<path d="M50.5541 33.9666L50.0576 33.5809C51.4106 33.1175 52.2661 32.5902 52.4844 32.0325C52.5209 32.1268 52.5398 32.2212 52.5398 32.3183C52.5398 32.9094 51.8255 33.4699 50.5541 33.9666Z" fill="#CF9724"/>
<path d="M59.2964 40.804L54.2456 38.9004L48.2398 34.0941C48.9176 33.9332 49.5273 33.7584 50.0595 33.578L50.556 33.9637L52.5417 35.5177L57.0456 39.0447L59.2962 40.804" fill="#395B72"/>
<path d="M54.2429 38.9017L43.6144 34.8947C45.3687 34.6755 46.9305 34.4063 48.2371 34.0955L54.2429 38.9017Z" fill="#568098"/>
<path d="M43.6228 34.8965L43.1822 34.73L42.3409 31.7469H52.5475C52.5475 31.844 52.5286 31.9384 52.4921 32.0327C52.2737 32.5905 51.4182 33.1177 50.0653 33.5812C49.533 33.7615 48.9233 33.9363 48.2455 34.0973C46.9389 34.4081 45.3771 34.6773 43.6228 34.8965Z" fill="#B88220"/>
<path d="M52.5392 31.745H42.3326L41.437 28.5704C47.9971 27.9766 52.5392 26.6862 52.5392 25.1905V31.745Z" fill="#B88220"/>
<path d="M41.4424 28.5693L41.2515 27.8922C42.7008 27.709 43.9729 27.4787 45.0055 27.2095C48.4946 26.5352 50.6528 25.6028 50.6528 24.5733V23.5771C51.8651 24.0655 52.5446 24.6122 52.5446 25.1894C52.5446 26.6851 48.0026 27.9754 41.4424 28.5693Z" fill="#CF9724"/>
<path d="M41.2519 27.8926L41.2203 27.7816C42.6036 27.6207 43.8745 27.4292 45.0059 27.21C43.9732 27.4792 42.7012 27.7095 41.2519 27.8926Z" fill="#D1A16F"/>
<path d="M41.2216 27.7827L40.3163 24.5748H50.6545C50.6545 25.6043 48.4963 26.5367 45.0072 27.211C43.8758 27.4302 42.6049 27.6217 41.2216 27.7827Z" fill="#B88220"/>
<path d="M50.6543 24.574H40.3162L39.4237 21.4105C43.2696 21.0664 46.4335 20.4864 48.4118 19.7677C48.6218 19.715 48.8245 19.6623 49.0206 19.6095L50.6543 20.3699V23.5778V24.574Z" fill="#B88220"/>
<path d="M39.4197 21.4132L39.3047 21.0053C42.936 20.7722 46.0903 20.3393 48.4078 19.7704C46.4295 20.4891 43.2656 21.0691 39.4197 21.4132Z" fill="#CF9724"/>
<path d="M39.3018 21.0024L38.3018 17.4588H44.4024L49.0136 19.6094C48.8176 19.6621 48.6149 19.7149 48.4049 19.7676C46.0874 20.3364 42.9331 20.7693 39.3018 21.0024Z" fill="#B88220"/>
<path d="M44.4079 17.4618H38.3072L37.4856 14.5481C37.6926 14.5397 37.8987 14.5314 38.1033 14.5203L44.4079 17.4618Z" fill="#B88220"/>
<path d="M37.4835 14.5475L37.3805 14.184L38.1012 14.5198C37.8966 14.5309 37.6905 14.5392 37.4835 14.5475Z" fill="#CF9724"/>
<path d="M49.2776 26.3752L73.5114 22.6401L50.5196 4.64721L31.576 8.2297L49.2776 26.3752Z" fill="#456C89"/>
<path d="M34.8694 10.1531L48.4999 23.8282C49.8906 23.6145 51.5827 23.9281 52.2968 24.5275L67.3763 22.1771C66.5514 21.5804 66.9369 20.9283 68.2239 20.7202L51.2575 7.14226C50.1967 7.34484 48.8141 7.02294 48.1801 6.42077L36.0185 8.68793C36.5415 9.29287 36.0337 9.94776 34.8694 10.1531Z" fill="#69B7A4"/>
<path d="M56.5489 16.7777L54.9465 16.4975C54.3814 16.9609 53.5347 17.391 52.8172 17.6047L51.9789 17.2245C52.6905 17.0025 53.4754 16.639 53.9999 16.1894C54.6711 15.6206 54.4606 15.1211 53.5276 14.9629C52.6236 14.8103 51.7034 15.0267 50.5375 15.5401C48.976 16.2477 47.6804 16.6251 46.2671 16.3837C44.9093 16.1534 44.3611 15.504 44.8796 14.7215L43.1777 14.4384L43.6904 13.9389L45.3357 14.2109C45.8817 13.7336 46.5073 13.4478 47.0501 13.2618L47.9538 13.6476C47.5662 13.7835 46.8371 14.0527 46.2853 14.5661C45.6288 15.1877 46.1453 15.5484 46.805 15.6594C47.6593 15.8037 48.4094 15.5789 49.7744 14.9796C51.4059 14.2692 52.754 13.9972 54.2339 14.2442C55.5388 14.4662 56.2179 15.11 55.4996 15.9841L57.1618 16.2727L56.5489 16.7777Z" fill="#456E89"/>
<path d="M38.8574 6.5545C49.5173 6.5545 58.1584 8.22503 58.1584 10.2868C58.1584 12.3486 49.5173 14.0192 38.8574 14.0192C28.1977 14.0192 19.5563 12.3486 19.5563 10.2868C19.5563 8.22503 28.1977 6.5545 38.8574 6.5545Z" fill="#F59D01"/>
<path d="M58.1584 3.73195V10.2864H19.5563V3.73195H58.1584Z" fill="#F59D01"/>
<path d="M19.5563 3.73257C19.5563 5.79437 28.1977 7.4649 38.8574 7.4649C49.5173 7.4649 58.1584 5.79437 58.1584 3.73257C58.1584 1.67076 49.5173 0.000229327 38.8574 0.000229327C28.1977 0.000229327 19.5563 1.67076 19.5563 3.73257Z" fill="#FCB72B"/>
<path d="M24.1963 4.05994C24.1963 5.6278 30.7618 6.89597 38.8587 6.89597C46.9558 6.89597 53.5214 5.6278 53.5214 4.05994C53.5214 4.00721 53.515 3.95172 53.4961 3.89622C53.0567 5.38638 46.6733 6.56852 38.8587 6.56852C31.0441 6.56852 24.6604 5.38638 24.2211 3.89622C24.2024 3.95172 24.1963 4.00721 24.1963 4.05994Z" fill="#FFC285"/>
<path d="M24.2209 3.89566C24.6603 5.38582 31.044 6.56796 38.8586 6.56796C46.6731 6.56796 53.0566 5.38582 53.496 3.89566C53.0566 2.40549 46.6731 1.22336 38.8586 1.22336C31.044 1.22336 24.6603 2.40549 24.2209 3.89566Z" fill="#DD9624"/>
<path d="M24.1963 3.73255C24.1963 3.80193 24.2086 3.86852 24.2399 3.9379C24.7737 2.46439 31.113 1.30445 38.8587 1.30445C46.6042 1.30445 52.9438 2.46439 53.4775 3.9379C53.5089 3.86852 53.5214 3.80193 53.5214 3.73255C53.5214 2.16747 46.9558 0.896524 38.8587 0.896524C30.7618 0.896524 24.1963 2.16747 24.1963 3.73255Z" fill="#A36F40"/>
<path d="M38.2597 5.13693V4.79006C37.2347 4.78729 36.1743 4.72624 35.556 4.64021L35.98 4.41266C36.6159 4.49314 37.5353 4.55973 38.5246 4.55973C39.7793 4.55973 40.6277 4.41822 40.6277 4.22397C40.6277 4.03527 39.9384 3.91872 38.6303 3.81604C36.8281 3.68007 35.7153 3.5219 35.7153 3.22498C35.7153 2.94193 36.7578 2.72825 38.3835 2.67553V2.33143H39.4786V2.66165C40.539 2.66998 41.2636 2.72271 41.7765 2.78098L41.334 3.00852C40.9637 2.9669 40.2393 2.89198 39.1081 2.89198C37.7471 2.89198 37.2347 3.04737 37.2347 3.18612C37.2347 3.36372 37.8887 3.45252 39.426 3.57461C41.2462 3.71891 42.1652 3.89651 42.1652 4.19898C42.1652 4.47093 41.1931 4.72345 39.3728 4.78173V5.13693H38.2597Z" fill="#FCD183"/>
<defs>
<linearGradient id="paint0_linear" x1="-96.7105" y1="-95.6439" x2="589.445" y2="-95.6439" gradientUnits="userSpaceOnUse">
<stop stop-color="#576BB3"/>
<stop offset="1" stop-color="#424B65"/>
</linearGradient>
</defs>
</svg>
