<svg width="71" height="97" viewBox="0 0 71 97" fill="none" xmlns="http://www.w3.org/2000/svg">
<path d="M12.7666 93.2102L12.7651 93.2147L12.9081 93.2614L12.9096 93.2583" fill="white"/>
<path d="M13.3533 51.2857L13.3246 51.3008L13.3969 51.4333L13.4255 51.4182" fill="white"/>
<path d="M26.4791 95.5099C26.4791 96.1001 26.1554 96.2477 25.5065 96.2477C24.8575 96.2477 23.0733 96.3952 22.7496 96.2477C22.4259 96.1001 21.6143 95.6228 21.6143 95.9526C21.6143 96.3952 20.9654 96.3952 20.6417 96.2477C20.3164 96.1001 20.3164 93.7392 20.3164 93.7392H22.7496C22.7496 93.7392 23.5597 93.8868 23.7223 94.477C23.8849 95.0687 26.4791 94.9197 26.4791 95.5099Z" fill="url(#paint0_linear)"/>
<path d="M14.2148 95.5099C14.2148 96.1001 13.8911 96.2477 13.2422 96.2477C12.5932 96.2477 10.809 96.3952 10.4853 96.2477C10.1616 96.1001 9.35002 95.6228 9.35002 95.9526C9.35002 96.3952 8.70106 96.3952 8.37734 96.2477C8.05212 96.1001 8.05212 93.7392 8.05212 93.7392H10.4853C10.4853 93.7392 11.2969 93.8868 11.458 94.477C11.6206 95.0687 14.2148 94.9197 14.2148 95.5099Z" fill="url(#paint1_linear)"/>
<path d="M16.3222 25.6283C16.1491 25.6283 16.0211 25.5471 15.9232 25.4207C15.6627 25.0769 15.6311 24.4055 15.5122 24.1687C15.3902 23.9254 15.4504 23.7747 15.4218 23.5768C15.4113 23.5103 15.3902 23.439 15.3495 23.3579C15.1884 23.0334 14.7006 21.7361 15.3495 21.7361C15.9985 21.7361 15.5122 23.52 15.8359 23.3579C16.1611 23.1957 15.9985 21.2496 16.1611 20.601C16.3222 19.9524 16.81 20.2767 16.81 21.2496C16.81 21.2496 16.8161 21.4281 16.8206 21.7119C16.8417 22.8374 16.8402 25.6283 16.3222 25.6283Z" fill="url(#paint2_linear)"/>
<path d="M17.6479 20.2632C17.2053 20.9213 17.121 21.083 17.4447 21.4075C17.7443 21.7074 16.9448 21.8564 16.8198 21.9196C16.8153 21.6358 16.8063 21.2493 16.8063 21.2493C16.8063 20.2763 16.3184 19.952 16.1573 20.6006C15.9947 21.2493 16.1573 23.1953 15.8321 23.3575C15.5084 23.5197 15.9947 21.7358 15.3458 21.7358C14.6968 21.7358 15.1847 23.033 15.3458 23.3575C15.3864 23.4387 15.4075 23.5099 15.4181 23.5764C15.4181 23.5764 15.0221 24.817 14.8594 25.6279H13.4005C13.4005 25.6279 10.4809 21.5736 10.9673 19.952C11.4536 18.3302 12.6612 17.2001 15.0221 17.1951C18.3511 17.188 17.9551 18.9402 17.9355 19.3685C17.928 19.5321 17.8783 19.9205 17.6479 20.2632Z" fill="url(#paint3_linear)"/>
<path d="M13.3358 26.7108L13.3283 26.7513L13.4774 26.7751L13.4834 26.7344" fill="#848484"/>
<path d="M15.8857 27.0396C14.767 26.5854 13.8094 26.6583 13.4043 26.7216C13.5549 25.7844 13.3983 25.6271 13.3983 25.6271H14.8573C15.0199 24.8161 15.4159 23.5756 15.4159 23.5756C15.4445 23.7734 15.3843 23.9242 15.5063 24.1675C15.6252 24.4043 15.6568 25.0757 15.9173 25.4194C15.9173 25.4194 15.7351 26.0454 15.8857 27.0396Z" fill="url(#paint4_linear)"/>
<path d="M17.0622 27.5256C14.1924 27.0116 12.4609 27.1738 12.3947 27.1802C12.8674 26.9014 13.1987 26.7635 13.1987 26.7635C13.1987 26.7635 13.2724 26.744 13.4065 26.7228C13.8115 26.6596 14.7691 26.5867 15.8878 27.0408C16.061 27.1105 16.2401 27.1932 16.4193 27.2906C16.4193 27.2906 16.6858 27.3781 17.0622 27.5256Z" fill="url(#paint5_linear)"/>
<path d="M21.6301 40.1268C20.1801 38.5587 18.7813 36.9857 18.7241 36.9208C18.7663 37.0944 20.2825 43.3282 21.6256 51.4734H8.13776C8.33801 45.1044 8.88006 31.0941 9.80454 29.599C10.5333 28.4199 11.6414 27.6205 12.3928 27.1777H12.3943C12.4605 27.1713 14.1921 27.0091 17.0619 27.5231L17.0679 27.5248C17.7846 27.8038 18.8913 28.2936 19.2978 28.788C19.6878 29.2616 22.1661 33.0384 23.9654 35.7986C23.9338 35.8877 22.9355 38.7583 21.6301 40.1268Z" fill="url(#paint6_linear)"/>
<path d="M23.6709 73.0346L22.8067 93.7361H20.3163C20.3163 93.7361 19.6734 74.7917 18.5893 70.8709C17.8636 68.245 16.6982 65.5348 15.4048 63.0053C12.1721 56.6815 8.13843 51.4734 8.13843 51.4734H21.6262C22.7239 58.1375 23.7056 66.0814 23.6709 73.0346Z" fill="url(#paint7_linear)"/>
<path d="M15.4045 63.0053L12.8042 76.3034L10.5276 93.7361H8.04778C7.90776 90.7639 8.69672 76.3034 8.69672 76.3034C8.04778 68.763 8.04778 54.6006 8.04778 54.6006C8.04778 54.6006 8.0779 53.3795 8.13812 51.4734C8.13812 51.4734 12.1718 56.6815 15.4045 63.0053Z" fill="url(#paint8_linear)"/>
<path d="M24.7871 37.0521V37.0538C24.7766 37.1252 24.4785 39.4084 22.6401 41.2102C22.3118 40.8631 21.97 40.495 21.6328 40.1284C22.9382 38.7599 23.9364 35.8893 23.9681 35.8002C24.2647 36.251 24.5402 36.6744 24.7871 37.0521Z" fill="url(#paint9_linear)"/>
<path d="M35.998 44.2666C35.9543 44.2958 35.9001 44.312 35.8309 44.312C35.1262 44.312 24.3411 42.9334 24.3411 42.9334C23.9285 42.5525 23.3142 41.9233 22.6427 41.2114C24.4811 39.4096 24.7792 37.1264 24.7898 37.055C25.4432 38.0588 25.8829 38.7365 25.8829 38.7365L35.8309 42.6093C35.8309 42.6093 36.4091 43.9991 35.998 44.2666Z" fill="url(#paint10_linear)"/>
<path d="M15.4123 62.9773L15.4063 63.0074L15.4123 62.9773Z" fill="url(#paint11_linear)"/>
<path d="M23.9136 35.7464L23.9121 35.7481L24.019 35.8545L24.0205 35.8528" fill="#848484"/>
<path d="M17.046 27.5972L17.052 27.5989L17.0882 27.4528L17.0821 27.4512" fill="#848484"/>
<path d="M12.3946 27.2556H12.3961V27.105H12.3946V27.2556Z" fill="#848484"/>
<path d="M38.5972 43.6878C38.5882 43.7056 38.5792 43.7235 38.5671 43.7413C38.522 43.8143 38.4482 43.8808 38.3307 43.9846C38.1847 44.116 37.9528 44.2035 37.6577 44.2651C37.3957 44.3185 37.0389 44.325 36.7227 44.3154C36.3282 44.3024 35.9954 44.2651 35.9954 44.2651C36.4065 43.9977 35.8283 42.6078 35.8283 42.6078C35.8283 42.6078 36.5013 41.9996 36.807 42.0806C36.8476 42.0921 36.8883 42.1213 36.9244 42.1651C36.8371 42.264 36.7573 42.3922 36.7182 42.5673C36.5224 43.4251 37.0675 42.8219 37.3385 42.8899C37.471 43.1235 37.6261 43.3278 37.8203 43.3781C38.3067 43.4997 38.7177 43.4008 38.5972 43.6878Z" fill="url(#paint12_linear)"/>
<path d="M15.653 0.866295L17.6977 8.72379C17.8604 9.34774 17.4644 9.9887 16.8064 10.1597L2.37452 13.9156L0.036217 4.9304C-0.126396 4.30164 0.274122 3.65946 0.926078 3.48962L14.1745 0.0419401C14.8309 -0.129104 15.4889 0.237678 15.653 0.866295Z" fill="url(#paint13_linear)"/>
<path d="M8.36871 4.38352L3.39396 5.6781L3.17865 4.84892L8.1534 3.55435L8.36871 4.38352Z" fill="url(#paint14_linear)"/>
<path d="M10.2408 5.9477L3.89589 7.59912L3.67908 6.7701L10.0255 5.11853L10.2408 5.9477Z" fill="url(#paint15_linear)"/>
<path d="M13.9908 7.01612L4.39217 9.51402L4.17685 8.68501L13.7755 6.18694L13.9908 7.01612Z" fill="url(#paint16_linear)"/>
<path d="M5.87353 11.0541L4.86473 11.3169L4.64792 10.4879L5.65822 10.225L5.87353 11.0541Z" fill="url(#paint17_linear)"/>
<path d="M7.85604 10.5392L6.84574 10.8021L6.63043 9.97296L7.64073 9.71022L7.85604 10.5392Z" fill="url(#paint18_linear)"/>
<path d="M9.83802 10.0236L8.82772 10.2864L8.6124 9.45735L9.6212 9.19446L9.83802 10.0236Z" fill="url(#paint19_linear)"/>
<path d="M6.3457 12.8782L7.24158 16.3223L2.37073 13.9126L6.3457 12.8782Z" fill="url(#paint20_linear)"/>
<path d="M70.4702 5.45955L70.4687 5.45835L70.3617 5.5648L70.3633 5.56601" fill="white"/>
<path d="M48.2867 47.0913V48.8756C48.2867 48.8756 47.8501 49.0969 47.2914 49.2339C46.7343 49.3679 46.8217 49.9356 46.4709 49.8543C46.1185 49.7729 46.3896 48.719 46.4709 48.0173C46.5522 47.3127 48.2867 47.0913 48.2867 47.0913Z" fill="url(#paint21_linear)"/>
<path d="M68.505 93.3184H66.0734C66.0734 93.3184 59.5463 78.0463 55.874 72.2962C55.3108 71.4154 54.9043 70.4457 54.6845 69.4249L54.0596 66.5009L48.5579 51.3177H60.0718C60.0718 51.3177 60.9466 62.818 60.7614 68.4402C60.7418 69.0289 60.8502 69.6146 61.0791 70.1581C62.3574 73.2026 66.3971 85.0477 68.505 93.3184Z" fill="url(#paint22_linear)"/>
<path d="M58.4518 24.8867C58.2907 24.7244 58.128 26.3462 56.3438 26.5084C56.2761 26.5148 56.2113 26.5148 56.1511 26.51C55.1799 26.4191 55.058 24.898 55.1016 23.7838C55.1257 23.1289 55.2085 22.6162 55.2085 22.6162C55.2085 22.6162 55.5338 21.9677 55.8575 21.4811C56.1812 20.9946 57.1554 20.8324 57.4791 21.4811C57.8043 22.1299 57.9654 21.9677 57.9654 22.9407C57.9654 23.9138 57.9654 24.7244 58.4518 23.9138C58.9381 23.1028 60.0734 22.9407 60.236 23.9138C60.3986 24.8868 58.6144 25.0489 58.4518 24.8867Z" fill="url(#paint23_linear)"/>
<path d="M56.0768 26.509H56.2273V26.5073H56.0768V26.509Z" fill="#848484"/>
<path d="M58.4553 24.8858V28.4535C58.4553 28.4535 56.3474 29.4265 55.5373 30.3996C55.465 30.4854 55.4123 30.5405 55.3732 30.5699L55.3717 30.5714C55.31 30.6185 55.2874 30.6006 55.2934 30.5357C55.319 30.1903 56.1516 28.5232 56.1832 28.4551L56.1847 28.4535C56.3444 28.2945 56.1607 26.5706 56.1546 26.5091C56.2149 26.5139 56.2796 26.5139 56.3474 26.5074C58.1316 26.3452 58.2942 24.7235 58.4553 24.8858Z" fill="url(#paint24_linear)"/>
<path d="M60.2383 24.7242C59.4282 25.6973 58.4541 26.6914 58.4541 26.6914V24.8865C58.6167 25.0487 60.4009 24.8865 60.2383 23.9136C60.0757 22.9405 58.9404 23.1026 58.4541 23.9136C57.9677 24.7242 57.9677 23.9136 57.9677 22.9405C57.9677 21.9675 57.8066 22.1297 57.4814 21.4809C57.1577 20.8322 56.1835 20.9944 55.8598 21.4809C55.5361 21.9675 55.2108 22.616 55.2108 22.616C55.2108 22.616 55.128 23.1287 55.1039 23.7836C55.1039 23.7836 54.5619 23.7513 53.7518 23.2648C52.9403 22.7783 53.9145 21.6432 53.9145 21.6432C51.1576 21.4809 51.6439 18.0753 51.9676 18.2375C52.2928 18.3998 52.2928 19.0485 55.5361 18.2375C58.7793 17.4268 58.9404 20.3457 58.9404 20.3457C61.6988 20.6702 61.0498 23.7513 60.2383 24.7242Z" fill="url(#paint25_linear)"/>
<path d="M58.9357 28.7852L56.9949 31.8599C56.8322 32.022 57.1575 31.8599 56.6711 31.0489C56.1969 30.2609 55.4154 30.5543 55.3717 30.5707C55.4109 30.5414 55.4636 30.4863 55.5359 30.4004C56.3459 29.4273 58.4538 28.4544 58.4538 28.4544C58.4538 28.4544 58.639 28.5744 58.9357 28.7852Z" fill="url(#paint26_linear)"/>
<path d="M62.0406 31.5567C57.4724 30.527 58.4541 42.8858 58.4541 42.8858C57.4287 43.6546 51.6364 45.8445 49.2575 46.7268L50.1835 40.6156L48.8028 41.1832C44.2827 41.9452 39.7145 43.0075 39.7145 43.0075L39.2719 41.3241C41.7035 40.4728 47.7187 37.9998 47.7187 37.9998C48.5302 37.9998 51.0703 32.7292 52.2041 31.2697C52.9418 30.321 54.4023 29.4161 55.3344 28.8989C54.9263 29.2833 54.2894 29.9756 54.0756 30.7233C54.0756 30.7233 54.8857 30.0227 55.2922 30.5351C55.2862 30.6 55.3088 30.6179 55.3705 30.5708L55.372 30.5693C55.4157 30.5529 56.1971 30.2594 56.6714 31.0475C57.1577 31.8584 56.8325 32.0206 56.9951 31.8584L58.9359 28.7837C59.6752 29.309 61.1041 30.3957 62.0406 31.5567Z" fill="url(#paint27_linear)"/>
<path d="M61.857 46.2916C61.6914 46.391 61.0274 46.5581 60.0728 46.7599C57.0178 47.4088 51.0027 48.4251 48.9459 48.7684C48.4957 48.8437 48.2352 48.8859 48.2352 48.8859V47.1016C48.2352 47.1016 48.6267 46.9601 49.2546 46.7267C51.6335 45.8444 57.4258 43.6546 58.4512 42.8858C58.4512 42.8858 57.4695 30.5269 62.0377 31.5566C62.2922 31.8713 62.5105 32.1908 62.6686 32.507C63.6413 34.4529 62.6686 45.8053 61.857 46.2916Z" fill="url(#paint28_linear)"/>
<path d="M56.1796 28.454C56.148 28.5221 55.3154 30.1892 55.2898 30.5346C54.8832 30.0222 54.0732 30.7228 54.0732 30.7228C54.287 29.9751 54.9239 29.2828 55.3319 28.8984C55.8107 28.6307 56.151 28.467 56.1796 28.454Z" fill="url(#paint29_linear)"/>
<path d="M60.0718 46.7602V51.3194H48.5579L48.9449 48.7687C51.0016 48.4255 57.0168 47.4091 60.0718 46.7602Z" fill="url(#paint30_linear)"/>
<path d="M58.8798 28.733L58.8753 28.7395L58.9957 28.8298L59.0003 28.8233" fill="#848484"/>
<path d="M54.0617 66.5009C53.3781 68.2851 52.8436 69.729 52.6147 70.4532C51.642 73.5338 49.0463 90.7241 48.2362 93.3184H45.803L47.1009 67.0474L48.5599 51.3177L54.0617 66.5009Z" fill="url(#paint31_linear)"/>
<path d="M48.2334 93.3197C48.2334 93.3197 48.2334 95.6806 47.9097 95.8281C47.5844 95.9757 46.9355 95.9757 46.9355 95.533C46.9355 95.2033 46.1255 95.6806 45.8002 95.8281C45.4765 95.9757 43.6923 95.8281 43.0433 95.8281C42.3959 95.8281 42.0707 95.6806 42.0707 95.0903C42.0707 94.5001 44.6649 94.6492 44.8276 94.0575C44.9902 93.4672 45.8002 93.3197 45.8002 93.3197H48.2334Z" fill="url(#paint32_linear)"/>
<path d="M68.5073 93.3197C68.5073 93.3197 68.5073 95.6806 68.1835 95.8281C67.8583 95.9757 67.2094 95.9757 67.2094 95.533C67.2094 95.2033 66.3993 95.6806 66.0756 95.8281C65.7504 95.9757 63.9662 95.8281 63.3187 95.8281C62.6698 95.8281 62.3445 95.6806 62.3445 95.0903C62.3445 94.5001 64.9403 94.6492 65.1014 94.0575C65.2641 93.4672 66.0756 93.3197 66.0756 93.3197H68.5073Z" fill="url(#paint33_linear)"/>
<path d="M38.5957 43.2702C38.7161 42.9832 38.3051 43.0821 37.8188 42.9605C37.6245 42.9102 37.4694 42.7058 37.3369 42.4723C37.0659 42.4043 36.5209 43.0074 36.7166 42.1497C36.7557 41.9745 36.8356 41.8464 36.9229 41.7475C37.1834 41.4572 37.5748 41.436 37.879 41.3241C38.284 41.1767 39.2702 41.3241 39.2702 41.3241L39.7129 43.0074L38.5656 43.3236C38.5776 43.3059 38.5866 43.2879 38.5957 43.2702Z" fill="url(#paint34_linear)"/>
<path d="M36.7143 43.9248C36.7143 43.9248 36.8784 43.1968 37.1841 43.2584C37.4912 43.3201 37.4355 43.3677 37.687 43.3025C37.9369 43.2371 38.2245 43.2602 38.2651 43.3102C38.3043 43.3603 38.3931 43.676 38.2516 43.7564C38.1116 43.8367 36.9296 44.1291 36.7143 43.9248Z" fill="url(#paint35_linear)"/>
<path d="M50.8156 1.11925L49.2391 9.08426C49.1142 9.71664 49.5478 10.3331 50.2133 10.4648L64.8424 13.3584L66.6447 4.2503C66.7712 3.61295 66.333 2.99562 65.672 2.86478L52.2429 0.208616C51.5759 0.0768695 50.9405 0.482053 50.8156 1.11925Z" fill="url(#paint36_linear)"/>
<path d="M58.6469 4.27185L53.6044 3.27434L53.7701 2.43402L58.8125 3.43138L58.6469 4.27185Z" fill="url(#paint37_linear)"/>
<path d="M59.6528 6.49049L53.2191 5.21805L53.3862 4.37758L59.8184 5.64988L59.6528 6.49049Z" fill="url(#paint38_linear)"/>
<path d="M62.5621 9.09021L52.8324 7.16567L52.9981 6.3252L62.7277 8.24975L62.5621 9.09021Z" fill="url(#paint39_linear)"/>
<path d="M53.4994 9.19118L52.4756 8.98882L52.6412 8.14835L53.665 8.35072L53.4994 9.19118Z" fill="url(#paint40_linear)"/>
<path d="M55.5098 9.58875L54.4875 9.38623L54.6531 8.54592L55.677 8.74844L55.5098 9.58875Z" fill="url(#paint41_linear)"/>
<path d="M57.5115 9.9872L56.4876 9.78468L56.6548 8.94421L57.6771 9.14673L57.5115 9.9872Z" fill="url(#paint42_linear)"/>
<path d="M60.8079 12.5606L60.1169 16.0516L64.8356 13.3575L60.8079 12.5606Z" fill="url(#paint43_linear)"/>
<defs>
<linearGradient id="paint0_linear" x1="20.3164" y1="95.0371" x2="26.4788" y2="95.0371" gradientUnits="userSpaceOnUse">
<stop stop-color="#F5F5F5"/>
<stop offset="0.10747" stop-color="#F5F5F5"/>
<stop offset="1" stop-color="#B3B3B3"/>
</linearGradient>
<linearGradient id="paint1_linear" x1="8.05212" y1="95.0371" x2="14.2146" y2="95.0371" gradientUnits="userSpaceOnUse">
<stop stop-color="#F5F5F5"/>
<stop offset="0.10747" stop-color="#F5F5F5"/>
<stop offset="1" stop-color="#B3B3B3"/>
</linearGradient>
<linearGradient id="paint2_linear" x1="15.0213" y1="22.9459" x2="16.8264" y2="22.9459" gradientUnits="userSpaceOnUse">
<stop stop-color="#FFECDC"/>
<stop offset="0.10747" stop-color="#FFECDC"/>
<stop offset="1" stop-color="#D39364"/>
</linearGradient>
<linearGradient id="paint3_linear" x1="10.9131" y1="21.4114" x2="17.9603" y2="21.4114" gradientUnits="userSpaceOnUse">
<stop stop-color="#808080"/>
<stop offset="0.89253" stop-color="#3C3C35"/>
<stop offset="1" stop-color="#3C3C35"/>
</linearGradient>
<linearGradient id="paint4_linear" x1="13.3983" y1="25.3076" x2="15.9184" y2="25.3076" gradientUnits="userSpaceOnUse">
<stop stop-color="#FFECDC"/>
<stop offset="0.10747" stop-color="#FFECDC"/>
<stop offset="1" stop-color="#D39364"/>
</linearGradient>
<linearGradient id="paint5_linear" x1="12.3947" y1="27.1007" x2="17.0619" y2="27.1007" gradientUnits="userSpaceOnUse">
<stop stop-color="white"/>
<stop offset="0.0027027" stop-color="white"/>
<stop offset="0.19149" stop-color="white"/>
<stop offset="1" stop-color="#D2D2FF"/>
</linearGradient>
<linearGradient id="paint6_linear" x1="8.13776" y1="39.3112" x2="23.9654" y2="39.3112" gradientUnits="userSpaceOnUse">
<stop stop-color="#BE73DE"/>
<stop offset="0.00678367" stop-color="#BE73DE"/>
<stop offset="1" stop-color="#514EB7"/>
</linearGradient>
<linearGradient id="paint7_linear" x1="8.13843" y1="72.6055" x2="23.6718" y2="72.6055" gradientUnits="userSpaceOnUse">
<stop stop-color="#808080"/>
<stop offset="0.89253" stop-color="#3C3C35"/>
<stop offset="1" stop-color="#3C3C35"/>
</linearGradient>
<linearGradient id="paint8_linear" x1="8.03122" y1="72.6055" x2="15.4041" y2="72.6055" gradientUnits="userSpaceOnUse">
<stop stop-color="#808080"/>
<stop offset="0.89253" stop-color="#3C3C35"/>
<stop offset="1" stop-color="#3C3C35"/>
</linearGradient>
<linearGradient id="paint9_linear" x1="24.3053" y1="36.4342" x2="22.101" y2="41.3719" gradientUnits="userSpaceOnUse">
<stop stop-color="white"/>
<stop offset="0.0027027" stop-color="white"/>
<stop offset="0.19149" stop-color="white"/>
<stop offset="1" stop-color="#D2D2FF"/>
</linearGradient>
<linearGradient id="paint10_linear" x1="30.1861" y1="40.232" x2="28.8617" y2="44.2051" gradientUnits="userSpaceOnUse">
<stop stop-color="#FFECDC"/>
<stop offset="0.10747" stop-color="#FFECDC"/>
<stop offset="1" stop-color="#D39364"/>
</linearGradient>
<linearGradient id="paint11_linear" x1="15.4063" y1="62.9924" x2="15.4128" y2="62.9924" gradientUnits="userSpaceOnUse">
<stop stop-color="white"/>
<stop offset="0.0027027" stop-color="white"/>
<stop offset="0.19149" stop-color="white"/>
<stop offset="1" stop-color="#D2D2FF"/>
</linearGradient>
<linearGradient id="paint12_linear" x1="35.8283" y1="43.1962" x2="38.6176" y2="43.1962" gradientUnits="userSpaceOnUse">
<stop stop-color="#FFECDC"/>
<stop offset="0.10747" stop-color="#FFECDC"/>
<stop offset="1" stop-color="#D39364"/>
</linearGradient>
<linearGradient id="paint13_linear" x1="1.05857" y1="8.85704" x2="16.6748" y2="4.79244" gradientUnits="userSpaceOnUse">
<stop stop-color="#BE73DE"/>
<stop offset="0.00678367" stop-color="#BE73DE"/>
<stop offset="1" stop-color="#514EB7"/>
</linearGradient>
<linearGradient id="paint14_linear" x1="3.28555" y1="5.26359" x2="8.26013" y2="3.9688" gradientUnits="userSpaceOnUse">
<stop stop-color="white"/>
<stop offset="0.0027027" stop-color="white"/>
<stop offset="0.19149" stop-color="white"/>
<stop offset="1" stop-color="#D2D2FF"/>
</linearGradient>
<linearGradient id="paint15_linear" x1="3.78749" y1="7.18476" x2="10.1332" y2="5.53309" gradientUnits="userSpaceOnUse">
<stop stop-color="white"/>
<stop offset="0.0027027" stop-color="white"/>
<stop offset="0.19149" stop-color="white"/>
<stop offset="1" stop-color="#D2D2FF"/>
</linearGradient>
<linearGradient id="paint16_linear" x1="4.28526" y1="9.09966" x2="13.8836" y2="6.60138" gradientUnits="userSpaceOnUse">
<stop stop-color="white"/>
<stop offset="0.0027027" stop-color="white"/>
<stop offset="0.19149" stop-color="white"/>
<stop offset="1" stop-color="#D2D2FF"/>
</linearGradient>
<linearGradient id="paint17_linear" x1="4.75633" y1="10.9024" x2="5.76614" y2="10.6395" gradientUnits="userSpaceOnUse">
<stop stop-color="white"/>
<stop offset="0.0027027" stop-color="white"/>
<stop offset="0.19149" stop-color="white"/>
<stop offset="1" stop-color="#D2D2FF"/>
</linearGradient>
<linearGradient id="paint18_linear" x1="6.73884" y1="10.3875" x2="7.74864" y2="10.1246" gradientUnits="userSpaceOnUse">
<stop stop-color="white"/>
<stop offset="0.0027027" stop-color="white"/>
<stop offset="0.19149" stop-color="white"/>
<stop offset="1" stop-color="#D2D2FF"/>
</linearGradient>
<linearGradient id="paint19_linear" x1="8.7193" y1="9.87185" x2="9.72912" y2="9.60901" gradientUnits="userSpaceOnUse">
<stop stop-color="white"/>
<stop offset="0.0027027" stop-color="white"/>
<stop offset="0.19149" stop-color="white"/>
<stop offset="1" stop-color="#D2D2FF"/>
</linearGradient>
<linearGradient id="paint20_linear" x1="2.81942" y1="15.6346" x2="6.79397" y2="14.6001" gradientUnits="userSpaceOnUse">
<stop stop-color="#BE73DE"/>
<stop offset="0.00678367" stop-color="#BE73DE"/>
<stop offset="1" stop-color="#514EB7"/>
</linearGradient>
<linearGradient id="paint21_linear" x1="46.2947" y1="48.4766" x2="48.287" y2="48.4766" gradientUnits="userSpaceOnUse">
<stop stop-color="#FFECDC"/>
<stop offset="0.10747" stop-color="#FFECDC"/>
<stop offset="1" stop-color="#D39364"/>
</linearGradient>
<linearGradient id="paint22_linear" x1="48.5579" y1="72.3188" x2="68.5047" y2="72.3188" gradientUnits="userSpaceOnUse">
<stop stop-color="#808080"/>
<stop offset="0.89253" stop-color="#3C3C35"/>
<stop offset="1" stop-color="#3C3C35"/>
</linearGradient>
<linearGradient id="paint23_linear" x1="55.0941" y1="23.7834" x2="60.2463" y2="23.7834" gradientUnits="userSpaceOnUse">
<stop stop-color="#FFECDC"/>
<stop offset="0.10747" stop-color="#FFECDC"/>
<stop offset="1" stop-color="#D39364"/>
</linearGradient>
<linearGradient id="paint24_linear" x1="55.2919" y1="27.736" x2="58.4553" y2="27.736" gradientUnits="userSpaceOnUse">
<stop stop-color="#FFECDC"/>
<stop offset="0.10747" stop-color="#FFECDC"/>
<stop offset="1" stop-color="#D39364"/>
</linearGradient>
<linearGradient id="paint25_linear" x1="51.7132" y1="22.3933" x2="60.9388" y2="22.3933" gradientUnits="userSpaceOnUse">
<stop stop-color="#808080"/>
<stop offset="0.89253" stop-color="#3C3C35"/>
<stop offset="1" stop-color="#3C3C35"/>
</linearGradient>
<linearGradient id="paint26_linear" x1="55.3717" y1="30.1853" x2="58.9362" y2="30.1853" gradientUnits="userSpaceOnUse">
<stop stop-color="white"/>
<stop offset="0.0027027" stop-color="white"/>
<stop offset="0.19149" stop-color="white"/>
<stop offset="1" stop-color="#D2D2FF"/>
</linearGradient>
<linearGradient id="paint27_linear" x1="39.2719" y1="37.7549" x2="62.0403" y2="37.7549" gradientUnits="userSpaceOnUse">
<stop stop-color="#FFD571"/>
<stop offset="0.10747" stop-color="#FFD571"/>
<stop offset="1" stop-color="#FF6421"/>
</linearGradient>
<linearGradient id="paint28_linear" x1="54.678" y1="39.8699" x2="63.9216" y2="46.9513" gradientUnits="userSpaceOnUse">
<stop stop-color="#FFD571"/>
<stop offset="0.10747" stop-color="#FFD571"/>
<stop offset="1" stop-color="#FF6421"/>
</linearGradient>
<linearGradient id="paint29_linear" x1="54.0732" y1="29.5884" x2="56.1798" y2="29.5884" gradientUnits="userSpaceOnUse">
<stop stop-color="white"/>
<stop offset="0.0027027" stop-color="white"/>
<stop offset="0.19149" stop-color="white"/>
<stop offset="1" stop-color="#D2D2FF"/>
</linearGradient>
<linearGradient id="paint30_linear" x1="48.5579" y1="49.0398" x2="60.0719" y2="49.0398" gradientUnits="userSpaceOnUse">
<stop stop-color="#FFD571"/>
<stop offset="0.10747" stop-color="#FFD571"/>
<stop offset="1" stop-color="#FF6421"/>
</linearGradient>
<linearGradient id="paint31_linear" x1="45.803" y1="72.3188" x2="54.0607" y2="72.3188" gradientUnits="userSpaceOnUse">
<stop stop-color="#808080"/>
<stop offset="0.89253" stop-color="#3C3C35"/>
<stop offset="1" stop-color="#3C3C35"/>
</linearGradient>
<linearGradient id="paint32_linear" x1="42.0707" y1="94.6176" x2="48.2331" y2="94.6176" gradientUnits="userSpaceOnUse">
<stop stop-color="white"/>
<stop offset="0.0027027" stop-color="white"/>
<stop offset="0.19149" stop-color="white"/>
<stop offset="1" stop-color="#D2D2FF"/>
</linearGradient>
<linearGradient id="paint33_linear" x1="62.3445" y1="94.6176" x2="68.507" y2="94.6176" gradientUnits="userSpaceOnUse">
<stop stop-color="white"/>
<stop offset="0.0027027" stop-color="white"/>
<stop offset="0.19149" stop-color="white"/>
<stop offset="1" stop-color="#D2D2FF"/>
</linearGradient>
<linearGradient id="paint34_linear" x1="36.6744" y1="42.2912" x2="39.7124" y2="42.2912" gradientUnits="userSpaceOnUse">
<stop stop-color="#FFECDC"/>
<stop offset="0.10747" stop-color="#FFECDC"/>
<stop offset="1" stop-color="#D39364"/>
</linearGradient>
<linearGradient id="paint35_linear" x1="36.7143" y1="43.6255" x2="38.329" y2="43.6255" gradientUnits="userSpaceOnUse">
<stop stop-color="#FFECDC"/>
<stop offset="0.10747" stop-color="#FFECDC"/>
<stop offset="1" stop-color="#D39364"/>
</linearGradient>
<linearGradient id="paint36_linear" x1="65.8572" y1="8.23009" x2="50.0272" y2="5.09959" gradientUnits="userSpaceOnUse">
<stop stop-color="#FFD571"/>
<stop offset="0.10747" stop-color="#FFD571"/>
<stop offset="1" stop-color="#FF6421"/>
</linearGradient>
<linearGradient id="paint37_linear" x1="53.6872" y1="2.85425" x2="58.7299" y2="3.85147" gradientUnits="userSpaceOnUse">
<stop stop-color="white"/>
<stop offset="0.0027027" stop-color="white"/>
<stop offset="0.19149" stop-color="white"/>
<stop offset="1" stop-color="#D2D2FF"/>
</linearGradient>
<linearGradient id="paint38_linear" x1="53.3019" y1="4.79797" x2="59.7345" y2="6.07007" gradientUnits="userSpaceOnUse">
<stop stop-color="white"/>
<stop offset="0.0027027" stop-color="white"/>
<stop offset="0.19149" stop-color="white"/>
<stop offset="1" stop-color="#D2D2FF"/>
</linearGradient>
<linearGradient id="paint39_linear" x1="52.9152" y1="6.74558" x2="62.645" y2="8.66971" gradientUnits="userSpaceOnUse">
<stop stop-color="white"/>
<stop offset="0.0027027" stop-color="white"/>
<stop offset="0.19149" stop-color="white"/>
<stop offset="1" stop-color="#D2D2FF"/>
</linearGradient>
<linearGradient id="paint40_linear" x1="52.5584" y1="8.56858" x2="53.582" y2="8.77102" gradientUnits="userSpaceOnUse">
<stop stop-color="white"/>
<stop offset="0.0027027" stop-color="white"/>
<stop offset="0.19149" stop-color="white"/>
<stop offset="1" stop-color="#D2D2FF"/>
</linearGradient>
<linearGradient id="paint41_linear" x1="54.5703" y1="8.96615" x2="55.5939" y2="9.16859" gradientUnits="userSpaceOnUse">
<stop stop-color="white"/>
<stop offset="0.0027027" stop-color="white"/>
<stop offset="0.19149" stop-color="white"/>
<stop offset="1" stop-color="#D2D2FF"/>
</linearGradient>
<linearGradient id="paint42_linear" x1="56.5705" y1="9.36445" x2="57.5941" y2="9.56688" gradientUnits="userSpaceOnUse">
<stop stop-color="white"/>
<stop offset="0.0027027" stop-color="white"/>
<stop offset="0.19149" stop-color="white"/>
<stop offset="1" stop-color="#D2D2FF"/>
</linearGradient>
<linearGradient id="paint43_linear" x1="64.4908" y1="15.1029" x2="60.4617" y2="14.3061" gradientUnits="userSpaceOnUse">
<stop stop-color="#FFD571"/>
<stop offset="0.10747" stop-color="#FFD571"/>
<stop offset="1" stop-color="#FF6421"/>
</linearGradient>
</defs>
</svg>
