<svg width="24" height="24" viewBox="0 0 24 24" fill="none" xmlns="http://www.w3.org/2000/svg">
<path d="M12 0C5.38317 0 0 5.38317 0 12C0 18.6168 5.38317 24 12 24C18.6168 24 24 18.6168 24 12C24 5.38317 18.6168 0 12 0ZM12 22.5938C6.15858 22.5938 1.40625 17.8414 1.40625 12C1.40625 6.15858 6.15858 1.40625 12 1.40625C17.8414 1.40625 22.5938 6.15858 22.5938 12C22.5938 17.8414 17.8414 22.5938 12 22.5938Z" fill="#009AE0"/>
<path d="M16.2891 7.40625C16.6774 7.40625 16.9922 7.09144 16.9922 6.70312C16.9922 6.31481 16.6774 6 16.2891 6H7.71094C7.32263 6 7.00781 6.31481 7.00781 6.70312C7.00781 7.09144 7.32263 7.40625 7.71094 7.40625H10.6641C11.5807 7.40625 12.3623 7.99416 12.6525 8.81255H7.71094C7.32263 8.81255 7.00781 9.12736 7.00781 9.51567C7.00781 9.90398 7.32263 10.2188 7.71094 10.2188H12.6525C12.3622 11.0371 11.5807 11.625 10.664 11.625H7.75781C7.48378 11.625 7.23473 11.7842 7.1197 12.0329C7.00467 12.2816 7.04452 12.5745 7.22189 12.7833L13.0343 19.6271C13.1734 19.7909 13.3714 19.8751 13.5706 19.875C13.7315 19.875 13.8932 19.8202 14.0254 19.7078C14.3214 19.4565 14.3576 19.0127 14.1062 18.7168L9.2775 13.0312H10.6641C12.3618 13.0312 13.7823 11.8215 14.109 10.2188H16.2891C16.6774 10.2188 16.9922 9.90394 16.9922 9.51562C16.9922 9.12731 16.6774 8.8125 16.2891 8.8125H14.109C14.0031 8.29317 13.7824 7.81523 13.4746 7.4062H16.2891V7.40625Z" fill="#009AE0"/>
</svg>
