<svg width="24" height="24" viewBox="0 0 24 24" fill="none" xmlns="http://www.w3.org/2000/svg">
<path d="M7.22895 0.0173149C6.49359 0.0559425 5.80326 0.299598 5.09791 0.760164C4.10443 1.41387 3.31805 2.55786 3.09594 3.67214C3.03291 3.99899 3.02391 5.00035 3.08394 5.35989C3.17998 5.94229 3.36907 6.47119 3.64521 6.92285C4.26651 7.93609 5.17895 8.6522 6.27448 8.98203C6.7157 9.11574 6.95581 9.15437 7.79622 9.22271L8.01833 9.24054L8.00332 8.84534C7.99432 8.61655 7.97031 8.41746 7.9493 8.36992C7.90127 8.27186 7.80223 8.23918 7.48407 8.21244C6.06438 8.10249 4.92383 7.3329 4.33254 6.07897C4.15245 5.69863 4.08342 5.43418 4.0414 4.98252C3.97837 4.2991 4.07742 3.63945 4.33254 3.09866C4.67171 2.37066 5.35604 1.67833 6.1034 1.31284C6.58664 1.07513 7.06387 0.994905 7.88627 1.01273C8.52257 1.03056 8.63663 1.05433 9.17089 1.30393C9.5971 1.50301 9.96627 1.74964 10.2154 1.99924C10.4285 2.21318 10.7226 2.57569 10.8727 2.81637C10.9478 2.93226 10.9628 2.94414 11.0468 2.92631C11.1639 2.90254 11.6651 2.6678 11.7551 2.59352C11.8422 2.5222 11.8242 2.46575 11.6291 2.17455C10.9297 1.12267 9.8222 0.335255 8.74468 0.118342C8.48656 0.0678282 7.57411 -0.0153713 7.43905 0.00245762C7.41504 0.00542927 7.31899 0.0113716 7.22895 0.0173149Z" fill="#009AE0"/>
<path d="M14.2522 3.01546C13.3818 3.11352 12.8655 3.24723 12.2502 3.53249C11.3108 3.96631 10.4223 4.73293 9.84906 5.60355C9.39884 6.28697 9.09269 7.06251 8.96363 7.85587C8.91561 8.16787 8.91561 9.297 8.96363 9.609C9.25777 11.4126 10.4313 12.9964 12.0911 13.8224C13.7149 14.6336 15.6239 14.6336 17.2506 13.8284C17.893 13.5075 18.3252 13.1955 18.8174 12.6933C20.4022 11.0769 20.8794 8.68192 20.03 6.59303C19.6458 5.64812 19.0335 4.84287 18.2111 4.20996C17.4457 3.61866 16.5423 3.23535 15.5428 3.07192C15.2607 3.02735 14.4563 2.99169 14.2522 3.01546ZM15.0206 4.00791C15.7619 4.06734 16.2512 4.20996 16.9235 4.56059C17.7519 4.99441 18.2892 5.49658 18.7574 6.26617C19.7028 7.82319 19.6638 9.85859 18.6583 11.3324C17.98 12.3249 16.8184 13.1152 15.6839 13.353C15.1646 13.4629 14.2762 13.4659 13.7059 13.3559C13.3818 13.2935 12.9676 13.1509 12.6164 12.9845C11.2267 12.313 10.2723 11.0888 9.97512 9.59414C9.90909 9.2554 9.88208 8.46501 9.9271 8.1233C10.0652 7.08628 10.5484 6.12949 11.3108 5.37475C12.1962 4.50116 13.2377 4.05248 14.5553 3.98117C14.5974 3.98117 14.8075 3.99305 15.0206 4.00791Z" fill="#009AE0"/>
<path d="M3.88231 8.54524C3.13795 8.98798 2.75676 9.27026 2.26452 9.74271C1.37309 10.5985 0.736783 11.6177 0.343592 12.83C0.220532 13.2044 0.0374437 13.9235 0.00742914 14.1374C-0.00757814 14.2652 -0.00457669 14.28 0.0614553 14.3098C0.187516 14.3662 0.472655 14.4138 0.724777 14.4167L0.967895 14.4227L1.00391 14.2147C1.14798 13.3857 1.53517 12.3546 1.95837 11.6801C2.39058 10.9907 3.07191 10.2568 3.69322 9.81403L3.92733 9.64763L4.25149 9.88534C4.97784 10.4202 5.75822 10.7886 6.44255 10.9194C6.98281 11.0234 8.23442 11.0234 8.53456 10.9224C8.62761 10.8897 8.65762 10.8629 8.66362 10.8035C8.67563 10.7114 8.49554 9.95071 8.46253 9.95071C8.45052 9.95071 8.30045 9.97151 8.12636 9.99825C7.89525 10.0339 7.69416 10.0428 7.34899 10.028C6.68266 10.0072 6.29848 9.91506 5.74321 9.65357C5.34702 9.46637 5.00785 9.22272 4.53963 8.78889C4.32652 8.59575 4.13443 8.4353 4.10742 8.4353C4.08341 8.4353 3.98136 8.48581 3.88231 8.54524Z" fill="#009AE0"/>
<path d="M4.22752 13.2993C2.90688 14.4998 0.709814 16.6214 0.628774 16.7788C0.59876 16.8353 0.613767 16.8977 0.751834 17.2246L0.910911 17.6019L1.13602 17.6198C1.25908 17.6316 1.62526 17.6406 1.94941 17.6435C2.38162 17.6465 2.5467 17.6554 2.56771 17.6822C2.58572 17.703 2.63075 17.8486 2.66676 18.0031C3.03294 19.5006 3.9814 20.8229 5.35607 21.747C5.92634 22.1333 6.59867 22.4394 7.55013 22.7543C8.35152 23.0188 8.56462 23.0515 8.66367 22.9118C8.7297 22.8227 8.96982 22.267 8.96982 22.2076C8.96982 22.1838 8.85877 22.0679 8.7237 21.9491C7.81726 21.1527 7.41807 20.6446 7.0699 19.8424C6.8628 19.3669 6.6707 18.5736 6.58366 17.8515C6.56866 17.7059 6.57166 17.6822 6.61968 17.6643C6.64969 17.6524 7.01587 17.6316 7.43007 17.6198C7.84728 17.6079 8.19544 17.59 8.20445 17.5841C8.21045 17.5752 8.29449 17.388 8.38454 17.1681L8.55262 16.7699L8.18344 16.4134C6.98886 15.2605 4.5937 13.0111 4.56068 13.0111C4.55168 13.0111 4.4016 13.1419 4.22752 13.2993ZM5.90833 15.62C6.4606 16.1489 6.91682 16.5946 6.92283 16.6095C6.92883 16.6243 6.64069 16.6392 6.2475 16.6422L5.56317 16.6511L5.56917 17.1562C5.59018 18.7013 5.95336 20.083 6.60767 21.1052C6.70072 21.2508 6.77275 21.3786 6.76375 21.3845C6.73974 21.4083 6.21748 21.1438 5.96836 20.9834C5.46712 20.6565 4.87283 20.0979 4.48865 19.5868C4.02642 18.9747 3.64524 18.0179 3.47415 17.0314L3.40812 16.6392L2.82884 16.6303C2.51069 16.6243 2.24056 16.6095 2.22855 16.5976C2.21654 16.5857 2.31259 16.4668 2.44465 16.3361C2.68777 16.0895 4.03543 14.8177 4.37159 14.5146L4.56068 14.3423L4.73176 14.4998C4.82481 14.5889 5.35607 15.0911 5.90833 15.62Z" fill="#009AE0"/>
<path d="M9.97525 13.8373C9.51902 14.1077 9.20387 14.3157 8.8497 14.5801C8.57657 14.7822 8.03931 15.2368 8.03931 15.2665C8.03931 15.2755 8.18938 15.4329 8.37247 15.6142L8.70863 15.947L9.17686 15.5756C9.6811 15.1774 9.98125 14.9694 10.1493 14.8981L10.2574 14.8535L10.5815 15.112C11.581 15.9024 12.5475 16.3392 13.7391 16.5383C14.1773 16.6126 15.2488 16.6096 15.678 16.5383C16.3834 16.4165 16.8486 16.262 17.4849 15.941C17.9681 15.6974 18.3463 15.4567 18.7785 15.115C18.9826 14.9516 19.1327 14.8535 19.1597 14.8654C19.1837 14.8743 19.3458 14.9753 19.5169 15.0912C21.0356 16.0985 22.1011 17.5189 22.6294 19.2393C22.8335 19.9079 23.0166 21.1588 23.0166 21.8868V22.074H16.7285H10.4375L10.4465 22.5405L10.4555 23.01H17.1937H23.929L23.953 22.906C24.001 22.7099 24.0161 21.7115 23.98 21.2272C23.851 19.4651 23.3617 17.9616 22.5093 16.6928C22.1311 16.1312 21.9 15.8519 21.3988 15.3587C20.9306 14.8981 20.4713 14.5267 19.9401 14.185C19.6339 13.9859 18.9796 13.6055 18.9436 13.6055C18.9376 13.6055 18.7515 13.7719 18.5354 13.974C17.8901 14.5742 17.5329 14.8327 16.9686 15.1091C16.6205 15.2755 16.0412 15.4775 15.738 15.5369C15.4439 15.5904 14.7476 15.6201 14.2823 15.5934C13.565 15.5548 13.0457 15.424 12.3974 15.1209C11.8271 14.8535 11.4009 14.5445 10.7766 13.9562C10.5725 13.763 10.3985 13.6055 10.3864 13.6055C10.3744 13.6055 10.1914 13.7095 9.97525 13.8373Z" fill="#009AE0"/>
</svg>
