<svg width="34" height="91" viewBox="0 0 34 91" fill="none" xmlns="http://www.w3.org/2000/svg">
<path d="M33.7951 0.00120268L33.7936 -3.03739e-06L33.6867 0.106453L33.6882 0.107658" fill="white"/>
<path d="M11.6116 41.633V43.4172C11.6116 43.4172 11.175 43.6385 10.6164 43.7755C10.0593 43.9095 10.1466 44.4772 9.79578 44.3959C9.44345 44.3146 9.71447 43.2606 9.79578 42.559C9.87708 41.8543 11.6116 41.633 11.6116 41.633Z" fill="url(#paint0_linear)"/>
<path d="M31.8299 87.86H29.3983C29.3983 87.86 22.8712 72.588 19.1989 66.8378C18.6358 65.957 18.2292 64.9873 18.0094 63.9665L17.3845 61.0425L11.8828 45.8593H23.3967C23.3967 45.8593 24.2715 57.3596 24.0863 62.9818C24.0667 63.5705 24.1751 64.1562 24.404 64.6997C25.6823 67.7442 29.722 79.5893 31.8299 87.86Z" fill="url(#paint1_linear)"/>
<path d="M21.7767 19.4285C21.6156 19.2662 21.453 20.8879 19.6687 21.0501C19.601 21.0566 19.5362 21.0566 19.476 21.0518C18.5049 20.9608 18.3829 19.4398 18.4266 18.3256C18.4506 17.6706 18.5335 17.1579 18.5335 17.1579C18.5335 17.1579 18.8587 16.5094 19.1824 16.0228C19.5061 15.5363 20.4803 15.3742 20.804 16.0228C21.1292 16.6716 21.2903 16.5094 21.2903 17.4824C21.2903 18.4555 21.2903 19.2662 21.7767 18.4555C22.263 17.6446 23.3983 17.4824 23.5609 18.4555C23.7235 19.4285 21.9393 19.5906 21.7767 19.4285Z" fill="url(#paint2_linear)"/>
<path d="M19.4017 21.0506H19.5522V21.049H19.4017V21.0506Z" fill="#848484"/>
<path d="M21.7802 19.4274V22.9951C21.7802 22.9951 19.6723 23.9681 18.8622 24.9412C18.79 25.027 18.7373 25.0821 18.6981 25.1115L18.6966 25.113C18.6349 25.1601 18.6123 25.1422 18.6183 25.0773C18.6439 24.7319 19.4766 23.0648 19.5082 22.9968L19.5097 22.9951C19.6693 22.8361 19.4856 21.1123 19.4796 21.0507C19.5398 21.0555 19.6045 21.0555 19.6723 21.049C21.4565 20.8869 21.6191 19.2651 21.7802 19.4274Z" fill="url(#paint3_linear)"/>
<path d="M23.5632 19.2659C22.7531 20.239 21.7789 21.233 21.7789 21.233V19.4282C21.9416 19.5903 23.7258 19.4282 23.5632 18.4552C23.4006 17.4821 22.2653 17.6443 21.7789 18.4552C21.2926 19.2659 21.2926 18.4552 21.2926 17.4821C21.2926 16.5091 21.1315 16.6713 20.8063 16.0225C20.4826 15.3738 19.5084 15.536 19.1847 16.0225C18.861 16.5091 18.5357 17.1576 18.5357 17.1576C18.5357 17.1576 18.4529 17.6703 18.4288 18.3253C18.4288 18.3253 17.8868 18.2929 17.0767 17.8064C16.2652 17.3199 17.2393 16.1848 17.2393 16.1848C14.4825 16.0225 14.9688 12.617 15.2925 12.7791C15.6177 12.9414 15.6177 13.5901 18.861 12.7791C22.1042 11.9685 22.2653 14.8874 22.2653 14.8874C25.0237 15.2118 24.3747 18.2929 23.5632 19.2659Z" fill="url(#paint4_linear)"/>
<path d="M22.2606 23.3269L20.3198 26.4016C20.1572 26.5638 20.4824 26.4016 19.9961 25.5907C19.5218 24.8026 18.7403 25.0961 18.6967 25.1125C18.7358 25.0831 18.7885 25.028 18.8608 24.9422C19.6708 23.9691 21.7788 22.9961 21.7788 22.9961C21.7788 22.9961 21.964 23.1161 22.2606 23.3269Z" fill="url(#paint5_linear)"/>
<path d="M25.3655 26.0985C20.7973 25.0687 21.779 37.4276 21.779 37.4276C20.7536 38.1964 14.9613 40.3862 12.5824 41.2686L13.5083 35.1573L12.1276 35.725C7.60762 36.487 3.03941 37.5492 3.03941 37.5492L2.59674 35.8659C5.0284 35.0146 11.0436 32.5415 11.0436 32.5415C11.8551 32.5415 14.3952 27.2709 15.529 25.8115C16.2667 24.8628 17.7272 23.9578 18.6592 23.4406C18.2512 23.825 17.6143 24.5174 17.4005 25.2651C17.4005 25.2651 18.2106 24.5645 18.6171 25.0769C18.6111 25.1418 18.6337 25.1597 18.6954 25.1125L18.6969 25.111C18.7405 25.0946 19.522 24.8012 19.9963 25.5892C20.4826 26.4002 20.1574 26.5624 20.32 26.4002L22.2608 23.3255C23.0001 23.8508 24.429 24.9374 25.3655 26.0985Z" fill="url(#paint6_linear)"/>
<path d="M25.1819 40.8332C25.0163 40.9326 24.3523 41.0997 23.3977 41.3015C20.3427 41.9504 14.3275 42.9668 12.2708 43.3101C11.8206 43.3853 11.5601 43.4275 11.5601 43.4275V41.6433C11.5601 41.6433 11.9516 41.5017 12.5795 41.2684C14.9584 40.386 20.7507 38.1962 21.7761 37.4274C21.7761 37.4274 20.7944 25.0685 25.3626 26.0983C25.6171 26.4129 25.8354 26.7325 25.9935 27.0486C26.9662 28.9946 25.9935 40.3469 25.1819 40.8332Z" fill="url(#paint7_linear)"/>
<path d="M19.5045 22.9958C19.4729 23.0638 18.6402 24.7309 18.6147 25.0763C18.2081 24.5639 17.3981 25.2645 17.3981 25.2645C17.6119 24.5168 18.2488 23.8245 18.6568 23.4401C19.1356 23.1724 19.4759 23.0087 19.5045 22.9958Z" fill="url(#paint8_linear)"/>
<path d="M23.3967 41.3018V45.861H11.8828L12.2698 43.3104C14.3265 42.9671 20.3417 41.9507 23.3967 41.3018Z" fill="url(#paint9_linear)"/>
<path d="M22.2047 23.2747L22.2002 23.2811L22.3207 23.3715L22.3252 23.365" fill="#848484"/>
<path d="M17.3865 61.0425C16.703 62.8267 16.1684 64.2706 15.9396 64.9948C14.9669 68.0755 12.3711 85.2657 11.5611 87.86H9.12793L10.4258 61.589L11.8848 45.8593L17.3865 61.0425Z" fill="url(#paint10_linear)"/>
<path d="M11.5583 87.8613C11.5583 87.8613 11.5583 90.2222 11.2346 90.3698C10.9093 90.5173 10.2604 90.5173 10.2604 90.0746C10.2604 89.7449 9.45035 90.2222 9.12512 90.3698C8.8014 90.5173 7.01717 90.3698 6.36823 90.3698C5.72079 90.3698 5.39557 90.2222 5.39557 89.632C5.39557 89.0418 7.98984 89.1908 8.15245 88.5991C8.31506 88.0089 9.12512 87.8613 9.12512 87.8613H11.5583Z" fill="url(#paint11_linear)"/>
<path d="M31.8321 87.8613C31.8321 87.8613 31.8321 90.2222 31.5084 90.3698C31.1832 90.5173 30.5343 90.5173 30.5343 90.0746C30.5343 89.7449 29.7242 90.2222 29.4005 90.3698C29.0753 90.5173 27.291 90.3698 26.6436 90.3698C25.9947 90.3698 25.6694 90.2222 25.6694 89.632C25.6694 89.0418 28.2652 89.1908 28.4263 88.5991C28.5889 88.0089 29.4005 87.8613 29.4005 87.8613H31.8321Z" fill="url(#paint12_linear)"/>
<path d="M1.9206 37.8118C2.04105 37.5248 1.63001 37.6237 1.14368 37.5021C0.949444 37.4518 0.794359 37.2475 0.66186 37.0139C0.390839 36.9459 -0.154217 37.549 0.0415204 36.6913C0.0806679 36.5162 0.160471 36.388 0.2478 36.2891C0.508282 35.9988 0.899756 35.9776 1.2039 35.8657C1.60893 35.7183 2.59513 35.8657 2.59513 35.8657L3.03781 37.549L1.89048 37.8652C1.90253 37.8475 1.91156 37.8296 1.9206 37.8118Z" fill="url(#paint13_linear)"/>
<path d="M0.0392456 38.4664C0.0392456 38.4664 0.203367 37.7384 0.509018 37.8C0.816175 37.8617 0.760471 37.9093 1.01192 37.8441C1.26186 37.7788 1.54943 37.8018 1.59009 37.8518C1.62924 37.9019 1.71808 38.2177 1.57655 38.2981C1.43652 38.3783 0.254557 38.6707 0.0392456 38.4664Z" fill="url(#paint14_linear)"/>
<defs>
<linearGradient id="paint0_linear" x1="9.61961" y1="43.0182" x2="11.6119" y2="43.0182" gradientUnits="userSpaceOnUse">
<stop stop-color="#FFECDC"/>
<stop offset="0.10747" stop-color="#FFECDC"/>
<stop offset="1" stop-color="#D39364"/>
</linearGradient>
<linearGradient id="paint1_linear" x1="11.8828" y1="66.8604" x2="31.8296" y2="66.8604" gradientUnits="userSpaceOnUse">
<stop stop-color="#808080"/>
<stop offset="0.89253" stop-color="#3C3C35"/>
<stop offset="1" stop-color="#3C3C35"/>
</linearGradient>
<linearGradient id="paint2_linear" x1="18.419" y1="18.3251" x2="23.5713" y2="18.3251" gradientUnits="userSpaceOnUse">
<stop stop-color="#FFECDC"/>
<stop offset="0.10747" stop-color="#FFECDC"/>
<stop offset="1" stop-color="#D39364"/>
</linearGradient>
<linearGradient id="paint3_linear" x1="18.6168" y1="22.2777" x2="21.7802" y2="22.2777" gradientUnits="userSpaceOnUse">
<stop stop-color="#FFECDC"/>
<stop offset="0.10747" stop-color="#FFECDC"/>
<stop offset="1" stop-color="#D39364"/>
</linearGradient>
<linearGradient id="paint4_linear" x1="15.0381" y1="16.9349" x2="24.2637" y2="16.9349" gradientUnits="userSpaceOnUse">
<stop stop-color="#808080"/>
<stop offset="0.89253" stop-color="#3C3C35"/>
<stop offset="1" stop-color="#3C3C35"/>
</linearGradient>
<linearGradient id="paint5_linear" x1="18.6967" y1="24.727" x2="22.2611" y2="24.727" gradientUnits="userSpaceOnUse">
<stop stop-color="white"/>
<stop offset="0.0027027" stop-color="white"/>
<stop offset="0.19149" stop-color="white"/>
<stop offset="1" stop-color="#D2D2FF"/>
</linearGradient>
<linearGradient id="paint6_linear" x1="2.59674" y1="32.2967" x2="25.3652" y2="32.2967" gradientUnits="userSpaceOnUse">
<stop stop-color="#FFD571"/>
<stop offset="0.10747" stop-color="#FFD571"/>
<stop offset="1" stop-color="#FF6421"/>
</linearGradient>
<linearGradient id="paint7_linear" x1="18.0029" y1="34.4115" x2="27.2465" y2="41.4929" gradientUnits="userSpaceOnUse">
<stop stop-color="#FFD571"/>
<stop offset="0.10747" stop-color="#FFD571"/>
<stop offset="1" stop-color="#FF6421"/>
</linearGradient>
<linearGradient id="paint8_linear" x1="17.3981" y1="24.1301" x2="19.5047" y2="24.1301" gradientUnits="userSpaceOnUse">
<stop stop-color="white"/>
<stop offset="0.0027027" stop-color="white"/>
<stop offset="0.19149" stop-color="white"/>
<stop offset="1" stop-color="#D2D2FF"/>
</linearGradient>
<linearGradient id="paint9_linear" x1="11.8828" y1="43.5814" x2="23.3968" y2="43.5814" gradientUnits="userSpaceOnUse">
<stop stop-color="#FFD571"/>
<stop offset="0.10747" stop-color="#FFD571"/>
<stop offset="1" stop-color="#FF6421"/>
</linearGradient>
<linearGradient id="paint10_linear" x1="9.12793" y1="66.8604" x2="17.3856" y2="66.8604" gradientUnits="userSpaceOnUse">
<stop stop-color="#808080"/>
<stop offset="0.89253" stop-color="#3C3C35"/>
<stop offset="1" stop-color="#3C3C35"/>
</linearGradient>
<linearGradient id="paint11_linear" x1="5.39557" y1="89.1592" x2="11.558" y2="89.1592" gradientUnits="userSpaceOnUse">
<stop stop-color="white"/>
<stop offset="0.0027027" stop-color="white"/>
<stop offset="0.19149" stop-color="white"/>
<stop offset="1" stop-color="#D2D2FF"/>
</linearGradient>
<linearGradient id="paint12_linear" x1="25.6694" y1="89.1592" x2="31.8318" y2="89.1592" gradientUnits="userSpaceOnUse">
<stop stop-color="white"/>
<stop offset="0.0027027" stop-color="white"/>
<stop offset="0.19149" stop-color="white"/>
<stop offset="1" stop-color="#D2D2FF"/>
</linearGradient>
<linearGradient id="paint13_linear" x1="-0.000638246" y1="36.8328" x2="3.03734" y2="36.8328" gradientUnits="userSpaceOnUse">
<stop stop-color="#FFECDC"/>
<stop offset="0.10747" stop-color="#FFECDC"/>
<stop offset="1" stop-color="#D39364"/>
</linearGradient>
<linearGradient id="paint14_linear" x1="0.0392456" y1="38.1671" x2="1.65393" y2="38.1671" gradientUnits="userSpaceOnUse">
<stop stop-color="#FFECDC"/>
<stop offset="0.10747" stop-color="#FFECDC"/>
<stop offset="1" stop-color="#D39364"/>
</linearGradient>
</defs>
</svg>
