<svg width="16" height="16" viewBox="0 0 16 16" fill="none" xmlns="http://www.w3.org/2000/svg">
<g id="Coin Icon">
<g id="coin (1)">
<path id="XMLID_137_" d="M12.9571 1.83181C15.6459 4.52419 15.3345 9.20096 12.2616 12.278C9.18867 15.3551 4.51815 15.6668 1.82936 12.9745C-0.859423 10.2821 -0.548055 5.60531 2.52488 2.52826C5.59782 -0.548788 10.2683 -0.860573 12.9571 1.83181Z" fill="#FFD949"/>
<path id="XMLID_120_" fill-rule="evenodd" clip-rule="evenodd" d="M7.28891 1.77059C7.3038 1.91523 7.42576 2.02328 7.56824 2.02328C7.57779 2.02328 7.58735 2.023 7.5969 2.02187C7.77254 2.00386 7.95071 1.9943 8.12634 1.99345C8.28147 1.99261 8.40652 1.86598 8.40568 1.71065C8.40511 1.5556 8.27922 1.43066 8.12466 1.43066H8.12325C7.92991 1.43151 7.73348 1.4422 7.53986 1.4619C7.38558 1.47766 7.27317 1.61582 7.28891 1.77059ZM10.2902 2.44478C10.2511 2.44478 10.2118 2.43662 10.1741 2.41945C10.0159 2.34741 9.85123 2.28354 9.68459 2.23007C9.53705 2.18224 9.45584 2.02353 9.50361 1.8758C9.5511 1.72806 9.7096 1.64702 9.85741 1.69458C10.044 1.7548 10.2286 1.82627 10.4062 1.90703C10.5476 1.97119 10.6103 2.13806 10.5462 2.2796C10.499 2.38371 10.397 2.44478 10.2902 2.44478ZM5.18845 2.48894C5.23762 2.58799 5.33711 2.6454 5.44052 2.6454C5.48239 2.6454 5.52511 2.63611 5.56501 2.61613C5.72379 2.53734 5.8879 2.46474 6.0523 2.39974C6.19702 2.34318 6.26812 2.17997 6.21135 2.03505C6.15459 1.89042 5.9916 1.81866 5.84715 1.87606C5.66758 1.94669 5.48857 2.02605 5.31547 2.11187C5.17636 2.18081 5.1196 2.34965 5.18845 2.48894ZM12.041 3.81858C11.9578 3.81858 11.8755 3.78172 11.8198 3.71109C11.7128 3.57461 11.5959 3.44263 11.4725 3.3191C11.3626 3.20908 11.3567 3.02505 11.4663 2.91502C11.5762 2.80528 11.7479 2.79909 11.8578 2.90911L11.6591 3.10806L11.8662 2.91783C12.009 3.0605 12.1408 3.20908 12.2619 3.36328C12.3577 3.48541 12.3366 3.66212 12.2147 3.75836C12.1632 3.79888 12.1017 3.81858 12.041 3.81858ZM3.44755 3.85906C3.5015 3.91281 3.5726 3.93926 3.64398 3.93926C3.71873 3.93926 3.79376 3.91056 3.84997 3.85428C3.97305 3.73103 4.10176 3.61172 4.23271 3.49944C4.35074 3.39842 4.36479 3.22086 4.26363 3.10267C4.16274 2.98477 3.98542 2.97098 3.86767 3.072C3.72548 3.19356 3.58581 3.323 3.44811 3.46061L3.64173 3.6649L3.44305 3.46595C3.33317 3.57598 3.33795 3.74932 3.44755 3.85906ZM2.34967 5.75208C2.30808 5.75208 2.26593 5.74279 2.22602 5.72337C2.08664 5.65499 2.02903 5.48644 2.0976 5.34687C2.18218 5.17381 2.27548 5.00188 2.37496 4.83614C2.45449 4.70247 2.62732 4.6597 2.76052 4.73962C2.89344 4.81953 2.93672 4.99203 2.85663 5.12569C2.76558 5.27764 2.67987 5.43551 2.6023 5.59449C2.55341 5.69411 2.45365 5.75208 2.34967 5.75208ZM12.6899 5.60258C12.7174 5.7354 12.8343 5.82685 12.9647 5.82685C12.9836 5.82685 13.0027 5.82488 13.0221 5.82094C13.1741 5.78914 13.2716 5.64028 13.2401 5.48805C13.2002 5.29586 13.1494 5.10451 13.0889 4.91935C13.0409 4.7719 12.8829 4.69086 12.7346 4.73898C12.587 4.78738 12.5064 4.94608 12.5547 5.09382C12.6087 5.25956 12.6542 5.43065 12.6899 5.60258ZM1.73792 7.88496C1.72893 7.88496 1.71994 7.88468 1.71067 7.88356C1.55611 7.86864 1.44314 7.73104 1.45803 7.57627C1.47658 7.38464 1.50496 7.1902 1.54205 6.99829C1.57156 6.84577 1.71881 6.74616 1.87141 6.77543C2.02372 6.80497 2.12348 6.9527 2.09397 7.10522C2.05997 7.27997 2.0344 7.45668 2.01754 7.63086C2.00349 7.77635 1.88096 7.88496 1.73792 7.88496ZM12.9138 8.03836C12.9318 8.04201 12.9501 8.0437 12.9678 8.0437C13.0996 8.0437 13.2173 7.95056 13.2434 7.81605C13.2808 7.62442 13.3092 7.42998 13.3283 7.23835C13.3435 7.08358 13.2305 6.94598 13.0762 6.93051C12.9217 6.91531 12.7843 7.02843 12.7688 7.18292C12.7517 7.3571 12.7258 7.53382 12.6918 7.70856C12.662 7.86108 12.7615 8.00881 12.9138 8.03836ZM1.96774 10.0886C1.84971 10.0886 1.73955 10.0135 1.70077 9.89502C1.64035 9.70987 1.58921 9.5188 1.54874 9.32661C1.5167 9.17437 1.61422 9.02523 1.76597 8.99344C1.91884 8.96192 2.06694 9.05872 2.09869 9.21067C2.13495 9.38289 2.18075 9.55426 2.23499 9.71943C2.28332 9.86717 2.20295 10.0259 2.05542 10.0746C2.02647 10.0841 1.99668 10.0886 1.96774 10.0886ZM12.0222 10.0732C12.0674 10.1008 12.1171 10.1134 12.1666 10.1134C12.2619 10.1134 12.3549 10.065 12.4077 9.97723C12.5075 9.81065 12.6011 9.639 12.6856 9.46679C12.7542 9.3275 12.6969 9.15866 12.5575 9.09C12.4181 9.0219 12.2498 9.07931 12.1812 9.21831C12.1036 9.37646 12.0177 9.53404 11.926 9.68712C11.846 9.8205 11.889 9.99327 12.0222 10.0732ZM10.7308 11.807C10.6512 11.807 10.5723 11.7733 10.5169 11.7083C10.416 11.5901 10.4301 11.4125 10.5481 11.3115C10.6819 11.1973 10.8128 11.076 10.9373 10.9513C11.0472 10.8416 11.2268 10.8399 11.3366 10.9496C11.4462 11.0594 11.4479 11.2358 11.3383 11.3458L11.3347 11.3492C11.1998 11.4846 11.0579 11.6157 10.9132 11.7395C10.86 11.7848 10.7951 11.807 10.7308 11.807ZM2.93095 11.8974C2.98407 11.9472 3.05095 11.9717 3.11811 11.9717C3.19202 11.9717 3.26565 11.9421 3.32185 11.8842C3.42807 11.7736 3.42358 11.5952 3.3151 11.4865C3.19314 11.3647 3.07793 11.235 2.97254 11.101C2.87644 10.9789 2.69996 10.9584 2.57799 11.0543C2.45631 11.1506 2.43524 11.3276 2.53134 11.4497C2.65022 11.6005 2.78033 11.7468 2.9051 11.8709C2.91128 11.878 2.92393 11.8909 2.93095 11.8974ZM8.82976 12.9523C8.71708 12.9523 8.61113 12.8842 8.56786 12.7731C8.51137 12.6284 8.58275 12.465 8.72747 12.4087C8.89103 12.3448 9.05514 12.2722 9.21504 12.1931C9.35443 12.1248 9.52276 12.1819 9.59132 12.3212C9.65989 12.4605 9.60285 12.629 9.46374 12.698C9.28923 12.7841 9.11022 12.8631 8.93177 12.9329C8.89805 12.9459 8.86349 12.9523 8.82976 12.9523ZM4.92212 13.109C4.95079 13.1183 4.98001 13.1228 5.00868 13.1228C5.12727 13.1228 5.23743 13.0469 5.27593 12.9281C5.32398 12.7804 5.24305 12.6217 5.09551 12.5736C4.92859 12.5192 4.76419 12.4554 4.60654 12.3833C4.46519 12.3183 4.29854 12.3808 4.23419 12.5223C4.16956 12.6639 4.23194 12.8307 4.37301 12.8952C4.55006 12.9762 4.73497 13.048 4.92212 13.109ZM6.37273 13.0947C6.37329 13.2498 6.49891 13.375 6.65375 13.375H6.65487C6.84821 13.3744 7.04436 13.364 7.23798 13.3446C7.39254 13.3291 7.50523 13.1912 7.48978 13.0368C7.47432 12.882 7.33718 12.7703 7.18206 12.7846C7.00642 12.8024 6.82826 12.8116 6.65262 12.8122C6.4975 12.8128 6.37217 12.9394 6.37273 13.0947Z" fill="white"/>
<path id="XMLID_115_" d="M12.2828 12.278C9.44085 15.1237 5.23316 15.6021 2.48958 13.5282C2.65791 13.7514 2.84085 13.9661 3.0429 14.1684C5.73141 16.8605 10.4022 16.5487 13.4752 13.4719C16.5478 10.3949 16.8592 5.71785 14.1707 3.02575C13.9686 2.82342 13.7542 2.64023 13.5314 2.47168C15.6025 5.21893 15.1247 9.43225 12.2828 12.278Z" fill="#FAD139"/>
<g id="Group 143">
<path id="XMLID_114_" d="M12.4733 12.071L13.6693 13.2686C13.7989 13.1307 13.9239 12.9903 14.0428 12.8468L12.8488 11.6511C12.7299 11.7944 12.6026 11.9331 12.4733 12.071Z" fill="#FAFAFA"/>
<path id="XMLID_113_" d="M11.4336 13.0193L12.6302 14.2174C12.7777 14.1029 12.9221 13.9819 13.0641 13.8561L11.8695 12.6599C11.727 12.7857 11.5814 12.9044 11.4336 13.0193Z" fill="#FAFAFA"/>
<path id="XMLID_112_" d="M13.3587 10.9673L14.5545 12.1646C14.6629 12.0042 14.7658 11.8416 14.8622 11.677L13.669 10.4822C13.5729 10.6468 13.4675 10.8078 13.3587 10.9673Z" fill="#FAFAFA"/>
<path id="XMLID_111_" d="M14.0736 9.6934L15.2707 10.8919C15.3553 10.7056 15.4317 10.5173 15.5017 10.3277L14.3062 9.13062C14.2366 9.31999 14.1581 9.5074 14.0736 9.6934Z" fill="#FAFAFA"/>
<path id="XMLID_110_" d="M10.2324 13.8059L11.4284 15.0036C11.5979 14.9118 11.7659 14.8156 11.9312 14.7109L10.7343 13.5127C10.5691 13.6171 10.4019 13.7142 10.2324 13.8059Z" fill="#FAFAFA"/>
<path id="XMLID_109_" d="M8.84505 14.4065L10.0408 15.6038C10.2355 15.5397 10.4297 15.4693 10.6219 15.3897L9.42647 14.1929C9.23426 14.2723 9.04035 14.3426 8.84505 14.4065Z" fill="#FAFAFA"/>
<path id="XMLID_108_" d="M6.8418 14.7886L8.03865 15.9871C8.2778 15.9736 8.51807 15.9485 8.75834 15.912L7.56092 14.7129C7.32065 14.7492 7.08094 14.7754 6.8418 14.7886Z" fill="#FAFAFA"/>
<path id="XMLID_107_" d="M4.63086 14.5645L5.83081 15.766C6.15117 15.8522 6.47884 15.9143 6.81156 15.9526L5.61218 14.7513C5.27917 14.7125 4.9515 14.6512 4.63086 14.5645Z" fill="#FAFAFA"/>
<path id="XMLID_106_" d="M14.6575 7.89051L15.8524 9.087C15.898 8.85682 15.9331 8.62636 15.9573 8.39618L14.761 7.19828C14.7371 7.42903 14.7034 7.65977 14.6575 7.89051Z" fill="#FAFAFA"/>
<path id="XMLID_105_" d="M15.988 7.23321C15.972 6.92959 15.9385 6.62878 15.884 6.33331L14.681 5.12866C14.7369 5.42835 14.7799 5.73141 14.7959 6.03954L15.988 7.23321Z" fill="#FAFAFA"/>
</g>
</g>
<g id="Classplus Icon - Mono Light_vector">
<g id="Group-5">
<path id="Rectangle-9" d="M6.06271 8.44413L8.44058 6.06312C8.48748 6.01616 8.56352 6.01616 8.61043 6.06312L9.62951 7.08356C9.77022 7.22445 9.77022 7.45288 9.62951 7.59377L7.25164 9.97478C7.20474 10.0217 7.1287 10.0217 7.0818 9.97478L6.06271 8.95435C5.922 8.81346 5.922 8.58502 6.06271 8.44413Z" fill="white" fill-opacity="0.5"/>
<path id="Combined-Shape" d="M8.18603 8.3584L6.06293 6.23244C5.92223 6.09154 5.92223 5.8631 6.06293 5.7222L7.08202 4.70174C7.12892 4.65477 7.20496 4.65477 7.25187 4.70174L9.62973 7.08282C9.77044 7.22372 9.77044 7.45216 9.62973 7.59305L8.61065 8.61352L8.27095 8.95367C8.41166 8.81278 8.41166 8.58434 8.27095 8.44344L8.18603 8.3584Z" fill="white"/>
</g>
</g>
</g>
</svg>
