<svg width="382" height="121" viewBox="0 0 382 121" fill="none" xmlns="http://www.w3.org/2000/svg">
<g clip-path="url(#clip0)">
<rect width="382" height="121" fill="white"/>
<path d="M30.3532 189H365.34C365.591 182.75 363.463 163.263 361.945 160.942C355.4 150.943 340.252 146.546 329.44 144.608C317.773 142.515 303.534 142.41 293.867 135.448C283.332 127.862 278.69 112.866 266.18 109.62C257.632 107.402 248.812 110.95 240.14 112.597C227.574 114.985 214.285 113.265 202.709 107.752C189.68 101.547 178.457 90.0337 164.012 87.139C151.306 84.592 136.898 90.9606 129.093 101.226C121.695 110.957 120.543 123.782 113.959 133.824C107.426 143.788 96.1588 150.863 84.1311 151.302C77.6966 151.537 70.6683 150.237 65.2624 153.734C57.6595 158.654 56.8925 170.72 55.2444 175.21C51.9897 184.077 37.8136 175.956 30.3532 189Z" fill="#FDE9DB"/>
<path d="M114.095 97.3171C109.775 89.3441 98.8878 84.5771 85.1539 88.7425C76.9361 91.2353 71.8812 97.4211 64.9016 101.54C59.5449 104.701 53.0567 106.63 47.7279 109.819C42.3992 113.007 38.1907 118.21 40.1194 123.136C42.0749 128.131 49.3273 130.703 56.0118 131.969C68.8417 134.398 82.9122 134.175 94.7493 129.715C104.313 126.11 112.266 119.277 115.035 111.409C116.803 106.383 116.321 101.424 114.095 97.3171Z" fill="#FDE9DB"/>
<path d="M363.287 189H281.545C278.441 189 275.925 186.484 275.925 183.379V17.778C275.925 14.6736 278.441 12.1574 281.545 12.1574H363.287C366.392 12.1574 368.908 14.6736 368.908 17.778V183.379C368.908 186.484 366.392 189 363.287 189Z" fill="#FFD5CF"/>
<path d="M363.287 189H281.545C278.441 189 275.925 186.484 275.925 183.379V17.778C275.925 14.6736 278.441 12.1574 281.545 12.1574H363.287C366.392 12.1574 368.908 14.6736 368.908 17.778V183.379C368.908 186.484 366.392 189 363.287 189Z" stroke="white" stroke-width="1.33333" stroke-miterlimit="10" stroke-linejoin="round"/>
<path d="M366.271 24.2051H278.561C278.252 24.2051 278.002 24.4556 278.002 24.7641V170.332C278.002 170.641 278.252 170.891 278.561 170.891H366.271C366.58 170.891 366.831 170.641 366.831 170.332V24.7641C366.831 24.4556 366.58 24.2051 366.271 24.2051ZM366.271 170.332H278.561V24.7641H366.271V170.332Z" fill="white"/>
<path d="M317.083 18.0757H334.026" stroke="white" stroke-width="2.66667" stroke-miterlimit="10" stroke-linecap="round" stroke-linejoin="round"/>
<path d="M310.807 18.0757H313.931" stroke="white" stroke-width="2.66667" stroke-miterlimit="10" stroke-linecap="round" stroke-linejoin="round"/>
<path d="M278.561 118.221C287.346 128.706 290.519 138.634 306.808 138.448C311.595 138.394 316.604 136.948 321.032 139.142C323.814 140.519 326.086 143.322 327.167 146.705C328.47 150.788 328.343 156.034 331.323 158.53C333.794 160.601 337.118 159.63 340.113 159.29C344.94 158.742 347.023 161.968 350.497 166.452C353.074 169.78 364.784 170.332 360.487 170.332H278.56C278.56 170.332 278.561 118.221 278.561 118.221Z" fill="#FFC1BB"/>
<path d="M366.272 35.4727C366.159 35.5157 366.046 35.5582 365.936 35.6046C363.375 36.6892 361.287 38.6391 359.372 40.6567C357.704 42.4154 356.061 44.3027 353.874 45.3475C350.845 46.7943 346.528 45.9636 343.277 46.237C340.166 46.4986 333.202 50.2028 340.205 49.9574C348.886 49.6527 357.578 49.5923 366.272 49.6013V35.4727Z" fill="white"/>
<path d="M252.735 25.685C252.735 22.6047 246.876 23.7015 243.864 23.7552C242.7 23.7764 241.286 23.7312 240.714 22.39C240.158 21.0869 240.807 19.4612 240.689 17.9731C240.453 14.9828 237.443 14.0089 235.215 14.6037C232.986 15.198 230.64 16.5637 228.548 15.3886C225.747 13.8155 225.874 10.9018 223.86 7.88519C221.814 4.82054 218.245 4.12621 215.307 5.39747C212.369 6.66872 209.99 9.57852 208.076 12.7891C206.189 15.9544 205.121 21.542 200.113 23.0933C197.087 24.0314 194.194 20.5765 191.203 20.8896C188.571 21.1646 185.284 22.6047 186.07 25.685H252.735Z" stroke="white" stroke-width="1.33333" stroke-miterlimit="10" stroke-linejoin="round"/>
<path d="M166.023 9.54822C168.26 9.54822 164.139 5.62768 160.61 6.56183C159.636 6.82011 157.577 6.74575 156.635 6.38517C154.429 5.53935 154.426 2.69999 153.964 0.382771C153.5 -1.93501 153.256 -4.45795 151.708 -6.24408C149.977 -8.24041 146.915 -8.74131 144.424 -7.86026C141.922 -6.97586 140.022 -4.96611 138.003 -3.24483C135.984 -1.52411 133.489 0.029459 130.858 -0.314909C128.923 -0.568154 127.256 -1.81425 125.359 -2.27378C121.575 -3.19005 117.786 -0.844878 114.908 1.77869C112.03 4.40226 109.343 5.77918 105.634 6.96378C103.632 7.60276 98.8004 8.54195 93.7662 7.45518C91.3601 6.93583 89.9245 5.48177 87.3999 5.48177C83.727 5.48177 81.5417 7.65755 79.6505 9.54822L166.023 9.54822Z" fill="white"/>
<path d="M351.73 117.805C351.73 118.486 351.177 119.039 350.496 119.039C349.815 119.039 349.263 118.486 349.263 117.805C349.263 117.124 349.815 116.572 350.496 116.572C351.177 116.572 351.73 117.124 351.73 117.805Z" stroke="white" stroke-width="1.33333" stroke-miterlimit="10" stroke-linejoin="round"/>
<path d="M210.036 50.5868C210.036 51.2677 209.483 51.8201 208.802 51.8201C208.122 51.8201 207.569 51.2677 207.569 50.5868C207.569 49.9059 208.122 49.3536 208.802 49.3536C209.483 49.3536 210.036 49.9059 210.036 50.5868Z" stroke="white" stroke-width="1.33333" stroke-miterlimit="10" stroke-linejoin="round"/>
<path d="M264.381 9.54822C264.381 10.2291 263.829 10.7815 263.148 10.7815C262.467 10.7815 261.915 10.2291 261.915 9.54822C261.915 8.86731 262.467 8.31498 263.148 8.31498C263.829 8.31498 264.381 8.86731 264.381 9.54822Z" stroke="white" stroke-width="1.33333" stroke-miterlimit="10" stroke-linejoin="round"/>
<path d="M44.7027 86.5778C44.7027 87.2587 44.1504 87.811 43.4695 87.811C42.7886 87.811 42.2363 87.2587 42.2363 86.5778C42.2363 85.8969 42.7886 85.3446 43.4695 85.3446C44.1504 85.3446 44.7027 85.8969 44.7027 86.5778Z" stroke="white" stroke-width="1.33333" stroke-miterlimit="10" stroke-linejoin="round"/>
<path d="M130.823 36.0815C130.823 36.7625 130.271 37.3148 129.59 37.3148C128.909 37.3148 128.356 36.7625 128.356 36.0815C128.356 35.4006 128.909 34.8483 129.59 34.8483C130.271 34.8483 130.823 35.4006 130.823 36.0815Z" stroke="white" stroke-width="1.33333" stroke-miterlimit="10" stroke-linejoin="round"/>
<path d="M108.064 19.4428H131.861" stroke="#F2A8A0" stroke-width="2" stroke-miterlimit="10" stroke-linejoin="round"/>
<path d="M137.549 19.4428H146.993" stroke="#F2A8A0" stroke-width="2" stroke-miterlimit="10" stroke-linejoin="round"/>
<path d="M181.032 39.5423H190.477" stroke="#F2A8A0" stroke-width="2" stroke-miterlimit="10" stroke-linejoin="round"/>
<path d="M25.1232 104.77H42.7028" stroke="#F2A8A0" stroke-width="2" stroke-miterlimit="10" stroke-linejoin="round"/>
<path d="M342.94 85.6914H360.519" stroke="#F2A8A0" stroke-width="2" stroke-miterlimit="10" stroke-linejoin="round"/>
<path d="M356.185 92.7061H373.765" stroke="#F2A8A0" stroke-width="2" stroke-miterlimit="10" stroke-linejoin="round"/>
<path d="M200.76 63.6762V67.1199" stroke="white" stroke-width="1.33333" stroke-miterlimit="10" stroke-linejoin="round"/>
<path d="M202.482 65.3981H199.038" stroke="white" stroke-width="1.33333" stroke-miterlimit="10" stroke-linejoin="round"/>
<path d="M290.433 45.0378V48.4815" stroke="white" stroke-width="1.33333" stroke-miterlimit="10" stroke-linejoin="round"/>
<path d="M292.155 46.7596H288.712" stroke="white" stroke-width="1.33333" stroke-miterlimit="10" stroke-linejoin="round"/>
<path d="M192.936 13.5175V16.9612" stroke="white" stroke-width="1.33333" stroke-miterlimit="10" stroke-linejoin="round"/>
<path d="M194.658 15.2394H191.214" stroke="white" stroke-width="1.33333" stroke-miterlimit="10" stroke-linejoin="round"/>
<path d="M360.519 102.508V105.952" stroke="white" stroke-width="1.33333" stroke-miterlimit="10" stroke-linejoin="round"/>
<path d="M362.241 104.23H358.798" stroke="white" stroke-width="1.33333" stroke-miterlimit="10" stroke-linejoin="round"/>
<path d="M111.512 26.8347V30.2784" stroke="white" stroke-width="1.33333" stroke-miterlimit="10" stroke-linejoin="round"/>
<path d="M113.234 28.5565H109.79" stroke="white" stroke-width="1.33333" stroke-miterlimit="10" stroke-linejoin="round"/>
<path d="M153.13 75.5843V81.1568C153.13 81.1568 148.564 115.095 152.091 133.647C155.754 152.912 165.138 176.841 165.138 176.841H173.295C173.295 176.841 170.379 139.265 169.677 131.021C170.052 123.089 171.977 97.9961 171.977 97.9961C171.977 97.9961 179.862 85.8728 172.046 75.9107" fill="#4376CF"/>
<path d="M171.711 176.841C171.711 176.841 168.237 143.247 167.175 132.516C167.074 131.488 167.059 130.46 167.13 129.429C167.757 120.24 169.336 97.9963 169.336 97.9963" stroke="#1D334F" stroke-miterlimit="10" stroke-linejoin="round"/>
<path d="M159.199 79.3289C159.199 79.3289 159.129 91.791 160.264 97.3059C161.915 105.323 165.288 117.087 174.12 126.402C182.364 135.096 217.143 138.754 217.143 138.754L219.823 131.493C219.823 131.493 199.257 117.975 185.754 117.087C184.922 114.283 181.131 95.0055 181.131 95.0055C181.131 95.0055 181.47 83.9924 175.558 78.6206C175.129 78.2298 174.703 77.8335 174.425 77.3242L170.368 69.7061" fill="#4376CF"/>
<path d="M153.13 81.1567C153.13 81.1567 164.055 83.2878 175.008 78.1323" stroke="#1D334F" stroke-miterlimit="10" stroke-linejoin="round"/>
<path d="M158.127 81.5933L157.07 81.5592C156.709 81.5474 156.422 81.2517 156.422 80.8905V78.6382C156.422 78.2793 156.705 77.9847 157.063 77.9696L158.499 77.9092" stroke="#1D334F" stroke-miterlimit="10" stroke-linejoin="round"/>
<path d="M158.499 79.8057C158.499 80.0455 158.304 80.2401 158.065 80.2401C157.824 80.2401 157.63 80.0455 157.63 79.8057C157.63 79.5658 157.824 79.3713 158.065 79.3713C158.304 79.3713 158.499 79.5658 158.499 79.8057Z" fill="white"/>
<path d="M159.198 81.5826C159.198 81.5826 159.129 91.7907 160.264 97.3056C161.518 103.397 164.353 113.171 170.248 121.716" stroke="#1D334F" stroke-miterlimit="10" stroke-linejoin="round"/>
<path d="M157.069 81.5593C157.133 83.133 157.196 84.7072 157.259 86.2809C157.366 88.9252 156.783 91.4571 159.654 92.706" stroke="#1D334F" stroke-miterlimit="10" stroke-linejoin="round"/>
<path d="M164.783 81.0299L163.924 77.6561" stroke="#1D334F" stroke-miterlimit="10" stroke-linejoin="round"/>
<path d="M172.609 79.1556L171.425 75.5845" stroke="#1D334F" stroke-miterlimit="10" stroke-linejoin="round"/>
<path d="M219.332 132.817C219.332 132.817 198.655 120.789 185.298 119.083C184.428 118.972 183.721 118.339 183.532 117.482C182.429 112.463 179.9 100.436 179.366 97.4352C179.304 97.0897 179.291 96.7431 179.331 96.3948C179.571 94.3068 178.641 82.8476 172.609 79.1557" stroke="#1D334F" stroke-miterlimit="10" stroke-linejoin="round"/>
<path d="M169.32 80.2403C169.32 80.2403 172.891 82.7292 176.707 83.9926" stroke="#1D334F" stroke-miterlimit="10" stroke-linejoin="round"/>
<path d="M152.243 87.1327C152.243 87.1327 153.927 84.0904 154.697 81.5932" stroke="#1D334F" stroke-miterlimit="10" stroke-linejoin="round"/>
<path d="M180.853 52.9329C180.853 52.9329 191.575 65.1423 192.647 68.4837C193.719 71.8251 196.119 91.2036 196.119 91.2036L190.541 91.889L184.223 71.2906L170.368 57.9391" fill="#FFA18D"/>
<path d="M190.184 89.9683C190.324 91.296 190.444 93.7608 190.583 95.0885C190.666 95.8712 190.894 97.2391 191.244 97.2906C192.145 97.422 191.376 95.1975 191.833 95.2646C192.11 95.3049 192.234 96.9988 192.301 97.8681C192.361 98.6435 192.548 99.6849 193.034 99.7817C193.657 99.9063 193.287 95.5587 193.287 95.5587C193.287 95.5587 193.867 100.118 194.396 100.195C195.158 100.306 194.584 95.7186 194.584 95.7186C194.584 95.7186 195.148 99.5989 195.712 99.681C196.276 99.7638 195.792 96.9233 195.789 95.7415C195.99 96.5845 196.285 98.814 196.697 98.8743C197.107 98.9342 197.117 97.2598 197.073 96.8473C196.801 94.3545 195.765 89.4674 195.765 89.4674" fill="#FFA18D"/>
<path d="M146.029 51.7793L138.729 59.4125L120.697 51.0196L117.459 55.1213C117.459 55.1213 133.657 70.0068 139.044 70.0068C143.254 70.0068 157.171 59.4125 157.171 59.4125" fill="#FFA18D"/>
<path d="M122.678 51.9416C121.476 50.8252 119.113 48.418 117.911 47.3016C117.203 46.6436 115.904 45.5546 115.609 45.7631C114.852 46.2987 117.249 47.7779 116.867 48.0502C116.652 48.2033 115.077 46.8672 114.824 46.7057C114.031 46.1992 113.202 45.7491 112.346 45.3595C112.19 45.2885 112.027 45.2186 111.857 45.2326C111.687 45.2466 111.514 45.3752 111.512 45.5457C111.51 45.7016 111.642 45.8218 111.762 45.9208L114.84 48.4348C114.457 48.3805 114.165 48.4722 113.864 48.8015C113.589 49.1017 113.817 49.4958 113.817 49.4958C113.817 49.4958 113.35 49.4617 113.168 49.6278C112.987 49.7938 112.929 50.0621 112.96 50.3059C112.99 50.5496 113.096 50.7766 113.201 50.9991C112.937 50.9376 112.666 51.136 112.566 51.3876C112.466 51.6386 112.502 51.9232 112.573 52.1842C112.79 52.9809 113.336 53.6786 114.047 54.0956C114.368 54.2834 114.665 54.5535 115.059 54.5143C115.439 54.4769 115.799 54.2197 115.934 53.8586C116.778 54.8961 117.854 55.7442 119.06 56.3228" fill="#FFA18D"/>
<path d="M119.268 52.5883C119.268 52.5883 117.643 51.2908 117.309 48.892" stroke="#E07A6C" stroke-miterlimit="10" stroke-linejoin="round"/>
<path d="M115.515 49.252C115.84 49.6165 116.133 50.0078 116.464 50.3667C116.755 50.682 117.742 51.3584 116.963 51.719C116.446 51.9588 115.685 51.5166 115.299 51.2086C115.03 50.9939 114.801 50.7396 114.514 50.5467C114.433 50.4914 114.351 50.5965 114.389 50.6719C114.837 51.5759 116.428 52.685 117.41 51.8666C117.65 51.667 117.698 51.4261 117.545 51.1633C117.339 50.8111 116.906 50.5042 116.613 50.218C116.265 49.8775 115.888 49.5678 115.537 49.2302C115.523 49.2168 115.503 49.2374 115.515 49.252Z" fill="#E07A6C"/>
<path d="M113.542 51.6054C113.95 52.0934 114.391 52.5367 114.905 52.9146C115.215 53.1433 115.616 53.3865 116.017 53.2489C116.478 53.0907 116.839 52.246 116.446 51.8715C116.406 51.8335 116.352 51.8547 116.333 51.9017C116.261 52.0817 116.308 52.2678 116.271 52.4573C116.175 52.9443 115.77 53.0986 115.33 52.866C114.713 52.539 114.148 51.9816 113.635 51.5126C113.571 51.455 113.488 51.5411 113.542 51.6054Z" fill="#E07A6C"/>
<path d="M164.784 46.3656C164.784 46.3656 171.11 43.7213 176.871 48.4911C181.327 52.1807 185.754 57.5603 185.754 57.5603L177.177 65.3981L167.725 56.762" fill="#F05448"/>
<path d="M162.404 46.7597C162.404 46.7597 156.633 45.1211 151.206 48.0315C145.778 50.9418 141.183 56.9152 141.183 56.9152L148.994 65.398L158.337 59.418" fill="#F05448"/>
<path d="M153.742 50.4822C145.686 58.5386 152.435 64.8093 152.435 64.8093L153.13 77.5968C153.13 77.5968 155.146 78.2766 159.198 78.1323C166.55 77.8701 173.345 75.3427 173.345 75.3427C173.345 75.3427 175.882 63.9562 176.035 57.9393C176.171 52.5803 172.123 49.4737 172.123 49.4737L163.693 46.3001L153.742 50.4822Z" fill="#F05448"/>
<path d="M160.274 27.8381C159.7 27.9326 159.119 28.1098 158.652 28.4643C158.257 28.7645 157.848 28.8942 157.395 29.0898C156.379 29.5275 155.455 30.1922 154.758 31.0548C153.783 32.2607 153.276 33.8607 153.489 35.3963C153.554 35.857 153.68 36.3132 153.661 36.7777C153.612 37.9595 152.852 38.1032 152.033 38.8367C151.101 39.6708 150.209 40.6994 150.197 42.0187C150.183 43.4689 151.095 44.9928 152.522 45.4831C153.597 45.8526 155.007 45.4876 156.132 45.4048C158.847 45.2064 161.563 45.0073 164.279 44.8089C166.522 44.6445 168.824 44.3113 171.072 44.3275C172.731 44.3393 173.015 42.8003 173.041 41.3987C173.059 40.3718 172.625 38.9887 171.96 38.2133C171.711 37.9221 171.394 37.6817 171.221 37.3384C171.074 37.0455 171.048 36.7073 171.024 36.3797C170.943 35.2376 170.868 34.0871 170.576 32.9813C170.283 31.8755 169.754 30.8044 168.9 30.057C168.359 29.5846 167.68 29.2592 166.97 29.1692C166.298 29.0842 165.426 29.12 164.756 29.2095" fill="#010101"/>
<path d="M161.351 40.2533L160.264 46.9377C160.264 46.9377 160.306 49.2589 163.693 49.2589C166.11 49.2589 166.544 47.0585 166.544 47.0585L165.578 40.2533" fill="#FFA18D"/>
<path d="M167.12 30.755C170.2 33.8348 172.373 41.862 167.512 42.8074C163.648 43.5587 160.4 41.1101 159.419 38.0007C157.97 33.4121 164.04 27.6753 167.12 30.755Z" fill="#FFA18D"/>
<path d="M168.615 34.892C168.615 35.1379 168.415 35.3375 168.17 35.3375C167.924 35.3375 167.724 35.1379 167.724 34.892C167.724 34.646 167.924 34.447 168.17 34.447C168.415 34.447 168.615 34.646 168.615 34.892Z" fill="#060A47"/>
<path d="M163.693 36.6823C163.693 36.9283 163.893 37.1273 164.138 37.1273C164.384 37.1273 164.584 36.9283 164.584 36.6823C164.584 36.4363 164.384 36.2367 164.138 36.2367C163.893 36.2367 163.693 36.4363 163.693 36.6823Z" fill="#060A47"/>
<path d="M164.747 34.8527C163.742 34.4301 162.41 34.9679 162.219 36.1116C162.208 36.1821 162.304 36.2369 162.343 36.1636C162.835 35.239 163.635 34.7297 164.704 35.0087C164.808 35.0355 164.839 34.8918 164.747 34.8527Z" fill="#060A47"/>
<path d="M168.785 33.3164C168.01 32.5802 166.331 33.1398 166.515 34.3199C166.523 34.3708 166.606 34.3803 166.627 34.3345C166.792 33.9834 166.947 33.6139 167.289 33.3981C167.732 33.1185 168.254 33.208 168.701 33.426C168.769 33.4596 168.846 33.374 168.785 33.3164Z" fill="#060A47"/>
<path d="M166.555 35.4687C166.555 35.4687 168.277 37.3046 168.095 37.7238C167.796 38.4159 166.763 38.4159 166.763 38.4159" stroke="#E07A6C" stroke-miterlimit="10" stroke-linejoin="round"/>
<path d="M165.126 39.9358L168.555 39.0386C168.555 39.0386 169.004 41.0483 167.883 41.3569C165.706 41.9557 165.126 39.9358 165.126 39.9358Z" fill="white"/>
<path d="M155.007 31.9107C155.561 29.7316 156.976 27.8342 159.164 27.2651C160.153 27.0079 161.208 26.9817 162.218 27.1041C163.091 27.2098 163.885 27.5944 164.726 27.823C165.569 28.0517 166.291 27.6374 167.134 27.6984C168.756 27.8163 170.451 29.1955 169.68 30.9346C169.342 31.6977 168.659 32.2573 167.931 32.6643C165.998 33.7444 163.699 33.916 161.485 33.949C161.827 33.9439 162.057 35.9554 162.042 36.2142C162.001 36.9465 161.698 37.623 161.465 38.3117C160.828 40.1951 159.99 42.0109 159.074 43.7786C159.003 43.9144 158.891 44.0715 158.74 44.0469C158.663 44.034 158.602 43.9742 158.548 43.9166C157.744 43.0602 157.08 42.0864 156.555 41.0359C156.168 40.2611 155.532 39.446 155.291 38.6136C155.156 38.1485 155.257 37.7326 155.274 37.2646C155.298 36.6441 155.069 36.2349 154.899 35.6445C154.549 34.4309 154.701 33.116 155.007 31.9107Z" fill="#010101"/>
<path d="M165.995 43.1932C165.995 43.1932 163.736 43.3391 161.947 41.9331" stroke="#E07A6C" stroke-miterlimit="10" stroke-linejoin="round"/>
<path d="M161.652 38.1732C161.095 37.6868 160.484 38.0368 160.26 38.3196C159.716 39.0033 159.932 40.0767 160.432 40.8046C160.992 41.6213 161.587 41.6487 161.98 41.481C162.373 41.3138 162.531 40.629 162.289 39.9258" fill="#FFA18D"/>
<path d="M158.444 29.4502C159.619 29.1791 159.636 27.7876 159.488 26.8311C159.171 24.7901 157.472 23.488 155.426 23.6233C153.241 23.7676 150.901 25.2311 151.238 28.3154C151.535 31.0306 155.81 31.612 157.782 30.054C157.852 29.9986 157.92 29.9405 157.987 29.8812" fill="#010101"/>
<path d="M159.529 27.1812C159.529 27.1812 156.6 27.4412 154.812 30.8441" stroke="#4376CF" stroke-width="1.33333" stroke-miterlimit="10" stroke-linejoin="round"/>
<path d="M175.591 63.9494L168.17 57.1084" stroke="#91302C" stroke-miterlimit="10" stroke-linejoin="round"/>
<path d="M153.742 50.4822C145.686 58.5386 152.435 64.8093 152.435 64.8093" stroke="#91302C" stroke-miterlimit="10" stroke-linejoin="round"/>
<path d="M253.721 50.2642C253.721 50.2642 263.647 56.3454 265.689 58.9371C270.78 65.3979 278.008 86.5877 278.008 86.5877L272.576 89.1481C272.576 89.1481 259.674 67.955 258.802 67.477C255.481 65.6579 244.114 61.943 244.114 61.943" fill="#FF886F"/>
<path d="M241.225 42.3874C249.002 44.1037 261.663 54.0948 261.663 54.0948L249.002 69.706L238.871 62.6772" fill="#4376CF"/>
<path d="M237.022 96.2496C237.022 96.2496 237.37 132.734 240.156 140.816C243.657 150.975 257.231 173.162 257.231 173.162L275.473 163.614L260.414 135.04C259.722 133.727 259.381 132.259 259.425 130.776C259.559 126.175 259.888 115.947 260.224 113.243C260.581 110.369 261.699 107.944 262.671 105.264C264.626 99.8649 266.593 93.6344 265.741 87.8299" fill="#173682"/>
<path d="M241.979 94.2535C241.979 94.2535 242.327 130.738 245.113 138.82C248.615 148.978 261.868 170.735 261.868 170.735" stroke="#010101" stroke-miterlimit="10" stroke-linejoin="round"/>
<path d="M231.056 89.8823L229.772 98.5156C229.772 98.5156 215.319 119.376 211.111 135.049C209.05 142.728 204.685 174.935 204.685 174.935H225.726C225.726 174.935 230.521 144.526 233.432 137.596C236.316 130.731 248.567 112.674 250.65 109.591C258.841 103.252 260.684 92.1778 256.459 81.8797" fill="#1238A7"/>
<path d="M238.449 128.407L249.899 110.701C250.327 110.067 250.841 109.493 251.438 109.015C253.009 107.755 257.346 102.916 257.952 98.2773" stroke="#010101" stroke-miterlimit="10" stroke-linejoin="round"/>
<path d="M234.814 89.8824L233.775 96.8642C233.616 97.9353 233.224 98.9539 232.624 99.8551C229.395 104.703 218.44 121.745 214.869 135.049C212.807 142.728 208.442 174.935 208.442 174.935" stroke="#010101" stroke-miterlimit="10" stroke-linejoin="round"/>
<path d="M252.735 97.7749L242.559 97.8996C242.559 97.8996 241.284 104.713 241.679 105.107C242.251 105.68 245.111 108.374 246.167 108.374C247.224 108.374 250.294 105.733 250.91 105.117C251.526 104.501 252.735 97.7749 252.735 97.7749Z" stroke="#010101" stroke-miterlimit="10" stroke-linejoin="round"/>
<path d="M242.286 99.306H243.404" stroke="#010101" stroke-linejoin="round"/>
<path d="M244.536 99.306H250.761" stroke="#010101" stroke-linejoin="round" stroke-dasharray="5.4 2.7"/>
<path d="M251.327 99.306H252.445" stroke="#010101" stroke-linejoin="round"/>
<path d="M264.805 96.7982L261.791 97.1459C261.791 97.1459 261.221 104.055 261.653 104.406L262.63 105.857" stroke="#010101" stroke-miterlimit="10" stroke-linejoin="round"/>
<path d="M261.664 98.5732L262.776 98.4585" stroke="#010101" stroke-linejoin="round"/>
<path d="M263.423 98.392L264.536 98.2774" stroke="#010101" stroke-linejoin="round"/>
<path d="M236.819 40.3423C250.912 45.0165 258.638 64.2301 267.491 89.8822C267.491 89.8822 246.983 96.1361 227.408 94.8185C227.733 83.7283 226.474 57.5725 226.474 57.5725L230.513 41.5404" fill="#4376CF"/>
<path d="M256.075 60.985C256.075 60.985 249.372 47.5222 240.052 41.8938" stroke="#1D334F" stroke-miterlimit="10" stroke-linejoin="round"/>
<path d="M226.813 31.9078C226.813 33.0416 225.894 33.9601 224.761 33.9601C223.627 33.9601 222.708 33.0416 222.708 31.9078C222.708 30.7741 223.627 29.8556 224.761 29.8556C225.894 29.8556 226.813 30.7741 226.813 31.9078Z" stroke="white" stroke-width="0.666667" stroke-miterlimit="10" stroke-linejoin="round"/>
<path d="M226.474 38.6465L228.128 29.7835L233.531 34.4912L234.403 35.7032L236.819 40.3421C236.819 40.3421 234.416 45.5909 229.969 44.9642C229.715 44.9284 229.5 44.7574 229.386 44.5276L226.474 38.6465Z" fill="#FF886F"/>
<path d="M224.455 26.2639C223.263 28.8802 221.843 38.471 223.875 39.8256C225.908 41.1807 229.573 40.5948 231.153 39.1514C232.523 37.8997 234.902 30.3398 233.2 28.1087C231.497 25.8776 226.126 22.5949 224.455 26.2639Z" fill="#FF886F"/>
<path d="M235.472 27.2408C234.358 23.8016 232.342 23.2029 229.335 23.2029C226.604 23.2029 223.699 23.2056 221.586 25.0113C221.085 25.439 220.731 25.9416 220.822 26.6398C220.964 27.7165 222.094 28.4092 223.075 28.6043C224.511 28.8894 225.925 29.1644 227.342 29.5535C228.81 29.9566 229.442 31.3945 230.722 32.0821C230.95 32.2045 231.192 32.3018 231.411 32.4404C231.885 32.7401 232.232 33.2331 232.354 33.7799C232.446 34.1902 232.415 34.6207 232.505 35.0316C232.657 35.722 233.264 36.0255 233.807 36.3844C234.236 36.6679 235.149 37.1369 235.149 37.1369C235.149 37.1369 236.819 34.3931 236.819 31.7478C236.819 30.3837 236.492 28.2599 235.472 27.2408Z" fill="#010101"/>
<path d="M227.733 40.7313C227.733 40.7313 230.721 40.4445 231.612 38.3531" stroke="#D85039" stroke-miterlimit="10" stroke-linejoin="round"/>
<path d="M223.873 31.9621C223.873 31.9621 221.24 34.6332 221.572 35.3851C221.903 36.137 223.157 35.933 223.157 35.933" fill="#FF886F"/>
<path d="M225.07 31.75C224.981 31.9138 224.955 32.1514 224.922 32.2912C224.862 32.5399 225.111 32.7222 225.353 32.687C225.803 32.621 225.896 31.5991 225.357 31.5717C225.218 31.5644 225.13 31.641 225.07 31.75Z" fill="#010101"/>
<path d="M223.608 36.781L226.901 36.4193C226.901 36.4193 226.619 38.8332 224.66 38.8662C223.468 38.8858 223.608 36.781 223.608 36.781Z" fill="white"/>
<path d="M224.615 30.8071C225.314 30.934 226.04 31.2236 226.614 31.5953C226.69 31.5691 226.929 31.2666 226.856 31.0525C226.8 30.8837 225.766 30.3157 224.768 30.1698C224.768 30.1698 224.492 30.6942 224.615 30.8071Z" fill="#010101"/>
<path d="M227.457 32.1312C227.457 33.2649 226.538 34.1834 225.405 34.1834C224.271 34.1834 223.352 33.2649 223.352 32.1312C223.352 30.9974 224.271 30.0789 225.405 30.0789C226.538 30.0789 227.457 30.9974 227.457 32.1312Z" stroke="white" stroke-width="0.666667" stroke-miterlimit="10" stroke-linejoin="round"/>
<path d="M223.418 31.6165L222.752 31.4276" stroke="white" stroke-width="0.666667" stroke-miterlimit="10" stroke-linejoin="round"/>
<path d="M227.452 32.0226L231.612 33.0457" stroke="white" stroke-width="0.666667" stroke-miterlimit="10" stroke-linejoin="round"/>
<path d="M230.97 33.3606C231.319 32.919 231.765 32.4298 232.284 32.4695C232.552 32.4902 232.783 32.659 232.943 32.8737C233.768 33.9784 233.537 35.7975 232.345 36.5661C231.846 36.887 231.215 36.9659 230.907 36.352L230.831 33.6893C230.812 33.5725 230.894 33.4573 230.97 33.3606Z" fill="#FF886F"/>
<path d="M232.876 36.0816C232.876 36.0816 231.972 37.0364 231.056 36.5707" stroke="#D85039" stroke-miterlimit="10" stroke-linejoin="round"/>
<path d="M222.214 53.7242C222.214 53.7242 216.852 67.803 216.056 68.9384C215.114 70.2835 198.823 86.3687 198.823 86.3687L201.796 92.3342C201.796 92.3342 222.522 80.2288 225.242 76.7756C227.769 73.5678 232.035 62.4893 232.035 62.4893" fill="#FF886F"/>
<path d="M239.653 43.3292C235.041 41.2579 229.078 41.5961 223.93 49.9409C220.496 55.5056 216.057 64.6269 216.057 64.6269L232.022 72.8571L240.449 55.3463" fill="#4376CF"/>
<path d="M239.201 57.9393L232.022 72.8572L216.057 64.6265" stroke="#1D334F" stroke-miterlimit="10" stroke-linejoin="round"/>
<path d="M232.816 42.5062C232.816 42.5062 236.044 41.7845 238.995 43.0563" stroke="#1D334F" stroke-miterlimit="10" stroke-linejoin="round"/>
<path d="M217.407 61.9129L233.394 70.0067" stroke="#1D334F" stroke-miterlimit="10" stroke-linejoin="round"/>
<path d="M199.952 85.2525C199.952 85.2525 197.976 87.0783 195.699 87.6128C195.699 87.6128 195.767 88.7683 195.799 89.0042C195.542 89.2809 193.489 90.2553 192.708 90.5192C191.699 90.8602 190.381 91.4338 190.425 91.9928C190.481 92.7118 196.129 90.7641 196.129 90.7641C196.129 90.7641 190.275 93.0142 190.361 93.6135C190.485 94.4778 196.378 92.2248 196.378 92.2248C196.378 92.2248 191.422 94.215 191.513 94.8546C191.605 95.4941 195.208 93.9595 196.778 93.5358C195.729 94.054 192.87 95.1659 192.937 95.6322C193.004 96.0984 195.233 95.5131 195.765 95.318C198.982 94.1373 204.84 90.5304 204.84 90.5304" fill="#FF886F"/>
<path d="M300.725 87.0769C300.725 87.0769 290.376 116.765 289.054 129.457C287.732 142.148 286.571 174.935 286.571 174.935H305.579C305.579 174.935 308.229 133.489 310.017 127.154C311 123.672 312.197 117.229 314.554 105.876C317.718 97.7746 319.311 94.7206 317.833 87.9965" fill="#F05448"/>
<path d="M308.624 86.7538C308.624 86.7538 308.624 96.2267 307.796 100.652C306.707 105.353 300.805 122.041 303.965 130.931C307.126 139.821 330.576 164.134 330.576 164.134L340.929 151.025L321.245 125.281L326.324 104.975C326.324 104.975 331.293 96.0959 326.656 87.077" fill="#F05448"/>
<path d="M308.624 91.6987C308.624 91.6987 308.624 96.2269 307.796 100.652C306.707 105.353 300.805 122.041 303.965 130.931C304.694 132.98 306.411 135.736 308.623 138.765" stroke="#91302C" stroke-miterlimit="10" stroke-linejoin="round"/>
<path d="M302.263 80.4532L300.725 87.0766C310.52 90.5762 326.656 87.0766 326.656 87.0766L321.558 75.6035" fill="#FFA18D"/>
<path d="M339.343 153.034L319.533 128.617C318.808 127.725 318.516 126.558 318.737 125.43L322.538 105.952C322.653 105.358 322.842 104.783 323.094 104.234C324.152 101.921 325.542 94.2834 324.425 90.6127" stroke="#91302C" stroke-miterlimit="10" stroke-linejoin="round"/>
<path d="M299.767 89.8824C299.767 89.8824 308.198 94.5079 327.807 89.8824" stroke="#91302C" stroke-miterlimit="10" stroke-linejoin="round"/>
<path d="M305.957 91.5531L305.016 91.4234C304.71 91.3815 304.503 91.1411 304.552 90.885L304.975 88.6875C305.023 88.4348 305.305 88.2615 305.607 88.2973L307.847 88.4795" stroke="#91302C" stroke-miterlimit="10" stroke-linejoin="round"/>
<path d="M300.725 87.0769C310.52 90.5759 326.656 87.0769 326.656 87.0769" stroke="#91302C" stroke-miterlimit="10" stroke-linejoin="round"/>
<path d="M307.485 89.9228C307.485 90.3029 307.116 90.6115 306.66 90.6115C306.204 90.6115 305.835 90.3029 305.835 89.9228C305.835 89.5426 306.204 89.234 306.66 89.234C307.116 89.234 307.485 89.5426 307.485 89.9228Z" fill="#F8F4F1"/>
<path d="M313.69 88.6321L314.086 91.889" stroke="#91302C" stroke-miterlimit="10" stroke-linejoin="round"/>
<path d="M322.109 87.8545L323.03 90.8727" stroke="#91302C" stroke-miterlimit="10" stroke-linejoin="round"/>
<path d="M318.665 91.5531C318.665 91.5531 319.823 95.6788 324.711 96.7013" stroke="#91302C" stroke-miterlimit="10" stroke-linejoin="round"/>
<path d="M306.66 91.6448C306.66 91.6448 306.196 98.8452 306.196 99.7039C306.196 100.754 307.642 101.278 307.642 101.278" stroke="#91302C" stroke-miterlimit="10" stroke-linejoin="round"/>
<path d="M298.477 93.7623C298.477 93.7623 301.114 93.7198 303.045 91.2036" stroke="#91302C" stroke-miterlimit="10" stroke-linejoin="round"/>
<path d="M272.576 89.1481L275.093 94.0721C275.093 94.0721 278.305 95.548 278.397 95.4569C278.488 95.3652 280.489 93.2341 280.489 93.124C280.489 93.0139 277.697 85.6916 277.697 85.6916" fill="#FF886F"/>
<path d="M299.545 53.7909L293.653 71.636L279.279 88.3625L282.756 91.6988C282.756 91.6988 299.781 79.2546 302.368 75.7176C304.955 72.1811 311.612 53.7244 311.612 53.7244" fill="#FFA18D"/>
<path d="M280.501 87.416C279.47 88.2439 277.489 89.689 276.459 90.5169C275.851 91.005 274.832 91.914 274.964 92.1728C275.303 92.8392 276.762 91.0995 276.934 91.4371C277.039 91.6423 275.697 92.6625 275.011 93.1886C274.398 93.6582 273.629 94.3592 273.79 94.7321C273.997 95.2112 277.413 92.5574 277.413 92.5574C277.413 92.5574 273.926 95.4672 274.125 95.858C274.412 96.4215 277.926 93.5005 277.926 93.5005C277.926 93.5005 274.993 96.0224 275.204 96.4394C275.417 96.8564 277.528 94.963 278.506 94.3061C277.907 94.9065 276.208 96.3365 276.362 96.6401C276.517 96.9442 277.909 96.0224 278.228 95.7641C280.158 94.2038 283.69 90.8121 283.69 90.8121" fill="#FFA18D"/>
<path d="M276.934 91.4373C276.934 91.4373 278.449 91.5653 279.859 90.9588" stroke="#E07A6C" stroke-miterlimit="10" stroke-linejoin="round"/>
<path d="M273.88 91.6997C274.278 92.696 274.571 93.6743 275.055 94.6313C275.177 94.8717 275.412 95.1535 275.656 95.04C275.877 94.9383 275.855 94.6224 275.808 94.3837C275.715 93.9074 275.466 92.7502 275.466 92.7502" fill="#FF886F"/>
<path d="M278.645 95.4531C278.003 95.0931 277.354 94.7443 276.699 94.406C276.592 94.3507 276.481 94.2948 276.36 94.2847C276.24 94.2747 276.106 94.3227 276.05 94.4295C275.989 94.548 276.038 94.6928 276.102 94.8091C276.438 95.4213 277.118 95.7528 277.772 95.9948C277.929 96.053 278.094 96.1094 278.26 96.0932C278.427 96.077 278.596 95.968 278.628 95.8042" fill="#FF886F"/>
<path d="M279.278 95.0151C278.706 94.5511 278.074 94.233 277.487 93.7886C277.39 93.7159 277.29 93.6416 277.173 93.6114C277.056 93.5812 276.916 93.6058 276.843 93.7019C276.763 93.8076 276.787 93.9585 276.83 94.0849C277.057 94.7451 277.671 95.1867 278.274 95.5367C278.419 95.6206 278.572 95.7039 278.738 95.7162C278.905 95.7285 279.433 95.7162 279.397 95.066" fill="#FF886F"/>
<path d="M279.819 94.3529C279.246 93.8889 278.885 93.6457 278.298 93.2018C278.201 93.1291 278.101 93.0548 277.984 93.0246C277.867 92.9944 277.728 93.019 277.654 93.1151C277.574 93.2208 277.598 93.3717 277.641 93.4975C277.868 94.1578 278.482 94.5994 279.086 94.9499C279.23 95.0338 279.383 95.1171 279.549 95.1294C279.717 95.1417 280.141 95.1294 280.055 94.4278" fill="#FF886F"/>
<path d="M280.488 93.7987C279.951 93.2956 279.711 93.0379 279.157 92.5532C279.066 92.4738 278.971 92.3927 278.856 92.3542C278.742 92.3161 278.601 92.3301 278.521 92.4212C278.433 92.5208 278.447 92.6734 278.481 92.8019C278.66 93.4767 279.241 93.9608 279.819 94.3527C279.957 94.4466 280.103 94.5406 280.269 94.5646C280.435 94.5892 280.965 94.4064 280.671 93.6327" fill="#FF886F"/>
<path d="M308.136 46.7596C308.136 46.7596 301.653 47.3969 297.877 52.3668C294.523 56.7821 292.69 66.8219 292.69 66.8219L299.686 72.0763L305.652 62.0751" fill="white"/>
<path d="M301.572 54.8575C296.658 62.4275 296.658 82.6004 296.658 82.6004C296.658 82.6004 309.477 87.2488 328.905 82.0933C328.905 82.0933 324.858 61.2758 322.939 59.4181C321.019 57.5605 309.62 45.0162 309.62 45.0162L303.045 50.2639L301.572 54.8575Z" fill="white"/>
<path d="M333.471 96.3005C333.488 97.622 333.404 100.073 333.421 101.395C333.431 102.174 333.518 103.537 333.803 103.593C334.536 103.737 334.067 101.515 334.439 101.588C334.664 101.632 334.64 103.318 334.632 104.182C334.624 104.953 334.701 105.991 335.094 106.094C335.599 106.227 335.616 101.901 335.616 101.901C335.616 101.901 335.757 106.44 336.187 106.525C336.808 106.647 336.674 102.079 336.674 102.079C336.674 102.079 336.851 105.943 337.311 106.034C337.77 106.124 337.581 103.294 337.666 102.12C337.77 102.96 337.848 105.18 338.182 105.246C338.517 105.312 338.649 103.648 338.643 103.237C338.604 100.755 338.111 95.884 338.111 95.884" fill="#FFA18D"/>
<path d="M328.774 57.7083C328.774 57.7083 334.224 68.9456 335.271 71.4735C338.287 78.7589 338.184 96.6281 338.184 96.6281L333.548 96.7242C333.548 96.7242 328.451 76.2645 327.934 75.6216C325.967 73.1741 319.364 62.8923 319.364 62.8923" fill="#FFA18D"/>
<path d="M310.732 46.7596C310.732 46.7596 320.414 47.1392 325.695 50.9983C330.976 54.8573 335.305 66.899 335.305 66.899L321.647 72.8137L316.189 60.9849" fill="white"/>
<path d="M316.189 60.985L321.646 72.8138L335.305 66.8991" stroke="#5A636D" stroke-miterlimit="10" stroke-linejoin="round"/>
<path d="M308.957 39.8987L312.195 45.7116C312.195 45.7116 312.38 48.2949 309.25 49.427C307.017 50.2348 306.433 47.9226 306.433 47.9226L305.051 41.3114" fill="#FFA18D"/>
<path d="M301.778 32.3989C299.369 35.9354 298.183 44.1885 303.049 44.2114C306.917 44.2293 309.603 41.272 309.983 38.0905C310.542 33.3946 304.188 28.8624 301.778 32.3989Z" fill="#FFA18D"/>
<path d="M305.564 43.7665C305.564 43.7665 307.008 43.2455 308.469 41.5739" stroke="#E07A6C" stroke-miterlimit="10" stroke-linejoin="round"/>
<path d="M302.522 37.1473C302.568 37.3849 302.412 37.6135 302.174 37.6588C301.936 37.7035 301.708 37.5476 301.663 37.31C301.618 37.073 301.774 36.8437 302.011 36.799C302.248 36.7537 302.478 36.9097 302.522 37.1473Z" fill="#33002C"/>
<path d="M301.387 36.0408C302.376 35.5796 303.228 35.9273 303.875 36.7301C303.917 36.7821 304.01 36.7256 303.988 36.6641C303.584 35.5857 302.217 35.3017 301.306 35.901C301.218 35.9592 301.294 36.0844 301.387 36.0408Z" fill="#33002C"/>
<path d="M300.491 36.6895C300.491 36.6895 298.558 39.4685 298.81 39.8402C299.226 40.4535 300.223 40.2645 300.223 40.2645" fill="#FFA18D"/>
<path d="M302.944 41.1166L300.362 40.709C300.362 40.709 300.413 42.7093 301.259 42.8569C302.905 43.1442 302.944 41.1166 302.944 41.1166Z" fill="white"/>
<path d="M311.33 28.1597C308.973 26.9891 305.994 27.2742 303.922 29.0323C302.331 29.0323 300.102 29.9408 299.344 32.1233C298.912 33.3688 298.865 34.9011 300.088 36.1774C300.258 35.5787 301.125 33.2676 301.98 32.5185C302.818 33.1575 304.06 34.5333 304.473 35.089C305.3 36.2015 306.018 37.3933 306.615 38.6422C307.239 39.9442 307.995 41.1708 308.683 42.4448C309.386 43.749 310.191 45.0136 311.242 46.0685C312.804 47.6372 314.833 48.6692 316.928 49.383C319.024 50.0969 321.206 50.5151 323.361 51.021C324.755 51.3486 326.189 51.7366 327.299 52.6428C328.032 53.2421 328.909 54.3624 329.447 55.1428C330.121 53.0436 330.05 50.9718 329.473 49.3098C328.905 47.6752 327.78 47.1156 327.458 46.4498C326.693 44.8722 327.26 44.298 327.014 42.6019C326.813 41.2127 326.033 39.9487 324.939 39.0811C323.598 38.0178 321.937 37.8126 320.303 37.5253C318.906 37.2798 317.463 36.8164 316.315 35.9549C315.205 35.1231 315.132 32.8959 314.575 31.6816C313.94 30.2958 312.747 28.8635 311.33 28.1597Z" fill="#010101"/>
<path d="M305.652 38.7831C306.01 38.0664 306.795 38.0552 307.152 38.186C308.014 38.5019 308.268 39.5557 308.076 40.4546C307.861 41.4626 307.261 41.7963 306.781 41.8545C306.302 41.912 305.836 41.3944 305.773 40.652" fill="#FFA18D"/>
<path d="M297.403 70.3619C297.403 70.3619 298.117 58.8139 299.767 55.4222" stroke="#5A636D" stroke-miterlimit="10" stroke-linejoin="round"/>
<path d="M106.88 35.3259C107.983 36.7962 110.939 39.5299 112.364 40.6905C113.365 41.5044 114.718 42.0607 115.608 42.9926C116.314 43.7311 116.063 43.934 115.315 44.5104C114.321 45.2763 113.192 45.8923 112.028 46.3591C111.815 46.4447 111.587 46.5268 111.36 46.4933C111.157 46.4631 110.979 46.3452 110.814 46.2227C110.02 45.6335 109.357 44.8883 108.721 44.1314C107.114 42.2161 103.973 38.7847 102.658 36.6587" fill="#4376CF"/>
<path d="M99.4567 38.715C100.628 40.1529 102.658 40.4374 103.991 39.3518C105.324 38.2656 105.456 36.2195 104.285 34.7822C103.113 33.3443 101.084 33.0592 99.7502 34.1454C98.4169 35.2316 98.2855 37.2772 99.4567 38.715Z" fill="white"/>
<path d="M105.259 39.6225L108.883 36.8178L103.116 29.4821L99.3075 32.8039C98.924 33.1388 98.9698 33.6598 99.2186 34.1037C100.509 36.4075 101.919 38.3217 103.959 39.5337C104.396 39.7936 104.875 39.9569 105.259 39.6225Z" fill="#699FED"/>
<path d="M104.608 34.3005C106.239 36.303 108.186 37.4177 108.956 36.7905C109.726 36.1632 109.028 34.0316 107.396 32.0291C105.765 30.0267 103.818 28.9119 103.048 29.5386C102.278 30.1659 102.977 32.298 104.608 34.3005Z" fill="#4376CF"/>
<path d="M120.698 33.007C120.698 33.007 112.804 34.5952 108.913 36.1281C107.491 36.4551 105.907 34.7668 105.102 33.7606C103.027 31.1644 103.307 30.0597 103.307 30.0597C106.434 26.3265 108.954 18.6413 108.954 18.6413" fill="white"/>
<path d="M112.088 28.0622C115.894 32.7174 121.03 34.8149 123.559 32.7464C126.089 30.6785 125.055 25.2285 121.249 20.5733C117.444 15.9182 112.308 13.8207 109.778 15.8886C107.249 17.957 108.283 23.4071 112.088 28.0622Z" fill="#699FED"/>
<path d="M113.205 27.1745C116.424 31.1118 120.659 32.9745 122.665 31.3349C124.671 29.6952 123.688 25.1742 120.469 21.2369C117.25 17.2996 113.015 15.4369 111.009 17.0766C109.004 18.7162 109.986 23.2372 113.205 27.1745Z" fill="#4376CF"/>
<path d="M118.96 25.2981C117.139 26.7868 115.888 28.2475 115.159 29.2097C114.486 28.6148 113.827 27.9345 113.206 27.1748C112.584 26.415 112.049 25.6335 111.599 24.8553C112.687 24.3315 114.367 23.3968 116.189 21.9075L118.96 25.2981Z" fill="#1238A7"/>
<path d="M116.65 24.3586C117.423 25.304 118.464 25.7322 118.974 25.3146C119.485 24.8975 119.272 23.7923 118.499 22.847C117.726 21.9016 116.686 21.474 116.175 21.891C115.665 22.3086 115.878 23.4133 116.65 24.3586Z" fill="white"/>
<path d="M64.8548 87.088C64.8548 87.088 66.2195 97.5515 64.8548 107.106C63.4902 116.659 46.4845 177.259 46.4845 177.259H28.3758L38.414 108.719C38.414 108.719 37.647 98.3096 43.81 89.4589" fill="#222256"/>
<path d="M79.1901 89.4589C79.1901 89.4589 79.98 103.513 79.4338 118.958C78.5298 144.54 74.2302 177.259 74.2302 177.259H57.0646L57.8903 110.612C57.8903 110.612 54.2934 94.909 57.7813 87.6946" fill="#222256"/>
<path d="M57.5666 137.762C57.5666 137.762 63.5278 107.697 65.4615 95.0879" stroke="#4376CF" stroke-miterlimit="10" stroke-linejoin="round"/>
<path d="M67.0115 95.088L65.7078 102.964C65.5535 103.62 65.0861 104.158 64.4583 104.403L63.8936 104.623" stroke="#4376CF" stroke-miterlimit="10" stroke-linejoin="round"/>
<path d="M31.1656 177.259L42.5539 108.473C42.5539 108.473 41.8607 98.9221 45.9669 93.3597" stroke="#4376CF" stroke-miterlimit="10" stroke-linejoin="round"/>
<path d="M52.9277 95.1307C52.9277 95.1307 51.2516 98.3887 49.7042 98.9226C48.1568 99.456 43.0728 100.643 43.0728 100.643" stroke="#4376CF" stroke-miterlimit="10" stroke-linejoin="round"/>
<path d="M79.3197 100.643C79.3197 100.643 75.2828 99.4558 74.1423 98.9225C72.6938 98.2455 72.5737 94.496 72.5737 94.496" stroke="#4376CF" stroke-miterlimit="10" stroke-linejoin="round"/>
<path d="M59.5829 177.259C59.5829 177.259 61.5144 125.167 61.5144 118.074" stroke="#4376CF" stroke-miterlimit="10" stroke-linejoin="round"/>
<path d="M108.818 50.9437C110.958 49.8731 112.658 47.9511 113.458 45.696C113.614 45.2571 113.738 44.8015 113.749 44.3364C113.768 43.4811 113.381 42.6257 112.726 42.0762C112.071 41.5267 111.161 41.2941 110.322 41.4618C109.21 41.6843 108.338 42.5357 107.617 43.4123C106.95 44.2246 106.32 45.2381 106.559 46.2623" fill="#FEC29E"/>
<path d="M85.8406 52.7858L91.5188 60.8382L104.956 45.6882L110.792 49.5624C110.792 49.5624 100.892 75.7808 91.5188 75.7808C84.5201 75.7808 74.763 58.7619 74.763 58.7619" fill="#FEC29E"/>
<path d="M64.8995 41.4162C64.8995 41.4162 73.719 40.2182 79.6265 44.6089C85.534 48.9996 91.5186 59.1232 91.5186 59.1232L74.1255 69.5588L64.8995 56.9614" fill="#173682"/>
<path d="M104.06 47.4813C104.298 45.2552 105.082 43.0699 106.507 41.4085C107.762 39.9454 109.009 38.6647 110.927 38.8492C111.189 38.8743 111.515 39.004 111.504 39.2668C111.497 39.4278 111.36 39.5485 111.231 39.6441C110.328 40.3155 109.446 41.224 109.177 42.3566C109.038 42.9413 109.085 43.5518 109.037 44.1511C108.914 45.6985 108.117 47.1805 106.894 48.1376" fill="#FEC29E"/>
<path d="M114.602 42.1683C114.621 41.7837 114.733 41.4869 114.609 41.1218C114.559 40.9726 114.365 40.7763 114.242 40.6785C114.106 40.5706 113.918 40.5454 113.748 40.5768C113.577 40.6086 113.42 40.6908 113.272 40.7808C112.622 41.1766 112.057 41.7927 111.94 42.544C111.932 42.591 111.927 42.6407 111.945 42.6843C111.961 42.7218 111.992 42.7503 112.025 42.7743C112.213 42.9124 112.464 42.9823 112.698 42.9823C113.245 42.9823 114.167 42.0694 114.233 41.9257" fill="#FEC29E"/>
<path d="M113.76 41.2859C113.779 40.9013 113.724 40.5128 113.601 40.1477C113.551 39.9985 113.484 39.847 113.361 39.7491C113.225 39.6412 113.037 39.6161 112.867 39.6474C112.696 39.6787 112.539 39.7614 112.391 39.8514C111.742 40.2472 111.176 40.8633 111.058 41.6146C111.051 41.6616 111.046 41.7113 111.064 41.755C111.08 41.7924 111.111 41.8209 111.143 41.845C111.333 41.983 111.592 41.9937 111.817 41.9288C112.042 41.864 112.242 41.7326 112.438 41.6035C112.652 41.4615 112.867 41.32 113.082 41.178C113.214 41.0908 113.353 40.9963 113.419 40.8521" fill="#FEC29E"/>
<path d="M112.879 40.3565C112.898 39.9719 112.844 39.5834 112.721 39.2183C112.67 39.069 112.603 38.9175 112.48 38.8197C112.345 38.7118 112.157 38.6867 111.986 38.718C111.816 38.7493 111.659 38.832 111.51 38.922C110.861 39.3178 110.296 39.9339 110.178 40.6852C110.17 40.7322 110.165 40.7819 110.183 40.8255C110.199 40.863 110.23 40.8915 110.263 40.9155C110.452 41.0536 110.712 41.0642 110.936 40.9994C111.162 40.9346 111.361 40.8032 111.557 40.674C111.772 40.532 111.986 40.3906 112.201 40.2486C112.333 40.1614 112.472 40.0669 112.538 39.9227" fill="#FEC29E"/>
<path d="M111.998 39.427C112.017 39.0424 111.963 38.6539 111.84 38.2888C111.789 38.1396 111.723 37.9881 111.6 37.8902C111.464 37.7823 111.276 37.7572 111.105 37.7885C110.935 37.8198 110.778 37.9025 110.63 37.9925C109.98 38.3883 109.415 39.0044 109.297 39.7557C109.29 39.8027 109.285 39.8525 109.303 39.8961C109.318 39.9335 109.349 39.962 109.382 39.9861C109.571 40.1242 109.831 40.1348 110.056 40.0699C110.281 40.0051 110.48 39.8737 110.676 39.7446C110.891 39.6026 111.105 39.4611 111.321 39.3191C111.453 39.2319 111.591 39.1374 111.657 38.9932" fill="#FEC29E"/>
<path d="M108.95 43.1872C108.95 43.1872 108.941 46.9786 107.782 48.1375" stroke="#D39976" stroke-miterlimit="10" stroke-linejoin="round"/>
<path d="M71.0545 43.6272C71.0545 43.6272 78.2456 49.061 79.3195 63.5267C80.3577 77.5089 80.6467 94.1067 80.6467 94.1067C63.7466 99.3969 38.6068 93.9251 38.6068 93.9251C38.6068 93.9251 43.0193 57.048 49.9063 46.1529L62.1997 40.5843L71.0545 43.6272Z" fill="#173682"/>
<path d="M51.2763 60.3014C51.2763 60.3014 46.1677 67.0295 40.4408 74.7039C35.9192 80.7628 15.6984 95.1307 15.6984 95.1307L12.2497 89.0869L28.4861 69.2119L40.7271 51.7856" fill="#FEC29E"/>
<path d="M13.0852 88.4488C11.8296 89.4395 9.40833 91.135 8.15271 92.1256C7.41197 92.7093 6.17256 93.8162 6.3453 94.2081C6.78975 95.216 8.55019 93.0078 8.77549 93.5188C8.91246 93.8285 7.275 95.0366 6.43755 95.6599C5.69066 96.2161 4.75537 97.0731 4.96837 97.6322C5.24174 98.3505 9.41057 95.197 9.41057 95.197C9.41057 95.197 5.16236 98.7011 5.42343 99.2925C5.79911 100.144 10.0803 96.6287 10.0803 96.6287C10.0803 96.6287 6.50966 99.6827 6.78807 100.313C7.06648 100.944 9.63363 98.6351 10.83 97.8782C10.1049 98.6228 8.03419 100.348 8.23712 100.808C8.44006 101.267 10.1429 100.209 10.5326 99.8996C12.8845 98.0308 17.1718 93.8492 17.1718 93.8492" fill="#FEC29E"/>
<path d="M13.7788 90.7969C13.7788 90.7969 12.3913 92.8809 10.4313 92.9547" stroke="#D39976" stroke-miterlimit="10" stroke-linejoin="round"/>
<path d="M60.6204 41.3208C60.6204 41.3208 49.1599 40.6422 44.1765 45.6249C39.1937 50.6076 35.9909 56.9611 35.9909 56.9611L48.5136 67.5247L55.1781 55.8995" fill="#173682"/>
<path d="M48.5138 67.5246L55.5478 57.4138" stroke="#010101" stroke-miterlimit="10" stroke-linejoin="round"/>
<path d="M68.5483 41.2897C68.3146 41.5234 69.1118 45.0844 63.5063 45.0844C58.1237 45.0844 56.7239 41.416 56.7239 41.416" stroke="#010101" stroke-miterlimit="10" stroke-linejoin="round"/>
<path d="M79.672 66.2312L78.2089 51.292" stroke="#010101" stroke-miterlimit="10" stroke-linejoin="round"/>
<path d="M66.6309 35.3517L60.7882 28.485L58.4414 35.2567L58.2882 36.7415L58.4989 41.9674C58.4989 41.9674 63.1938 45.3261 66.741 42.5706C66.9434 42.4135 67.0446 42.158 67.0289 41.9025L66.6309 35.3517Z" fill="#FEC29E"/>
<path d="M65.3054 23.6328C67.228 25.7706 70.8333 33.2746 69.2221 36.2403C67.7664 38.9203 64.7251 38.8393 62.7852 37.937C61.102 37.1543 56.563 30.6577 57.5173 28.0185C58.4716 25.3787 62.6097 20.6353 65.3054 23.6328Z" fill="#FEC29E"/>
<path d="M57.9661 23.5967C58.6073 22.0247 60.4253 21.0883 62.2417 20.9754C63.1619 20.9183 68.2688 21.7731 68.5483 25.4723L62.0634 27.1063C61.6961 29.011 61.3914 31.6603 60.578 33.4207C60.4885 33.6141 58.5928 37.4122 58.3686 37.2149C54.4502 34.6774 52.4214 31.4551 53.4479 28.3625C54.0024 26.6932 55.3503 24.0093 57.9661 23.5967Z" fill="#010101"/>
<path d="M66.5216 38.4172C66.5216 38.4172 63.7292 38.747 62.1079 37.3136" stroke="#D39976" stroke-miterlimit="10" stroke-linejoin="round"/>
<path d="M67.4349 29.0103C67.4349 29.0103 70.7478 30.7679 70.6573 31.5847C70.5667 32.4014 69.3099 32.5831 69.3099 32.5831" fill="#FEC29E"/>
<path d="M66.3656 29.0506C66.5003 29.1798 66.5953 29.3989 66.6691 29.5225C66.8011 29.7416 66.6183 29.9904 66.3773 30.029C65.9278 30.1016 65.5331 29.1546 66.038 28.9668C66.1688 28.9181 66.2756 28.9645 66.3656 29.0506Z" fill="#010101"/>
<path d="M68.3789 33.7235L65.1297 34.3669C65.1297 34.3669 66.1232 36.5846 68.0021 36.0278C69.1437 35.6896 68.3789 33.7235 68.3789 33.7235Z" fill="white"/>
<path d="M66.5169 28.0145C65.8886 28.3455 65.2826 28.8397 64.8471 29.3663C64.766 29.3646 64.4479 29.1477 64.4524 28.9218C64.4557 28.7435 65.2714 27.8915 66.1798 27.4527C66.1798 27.4527 66.5997 27.8703 66.5169 28.0145Z" fill="#010101"/>
<path d="M61.2209 32.3585C60.7552 32.042 60.1839 31.7094 59.7009 31.9028C59.4504 32.0029 59.2816 32.2332 59.1927 32.4865C58.7382 33.7874 59.5041 35.4539 60.8721 35.8284C61.444 35.9855 62.0701 35.8709 62.1791 35.1928L61.4529 32.6301C61.4356 32.5133 61.3227 32.4278 61.2209 32.3585Z" fill="#FEC29E"/>
<path d="M60.2198 35.5261C60.2198 35.5261 61.3692 36.1657 62.1027 35.4462" stroke="#D39976" stroke-miterlimit="10" stroke-linejoin="round"/>
</g>
<defs>
<clipPath id="clip0">
<rect width="382" height="121" fill="white"/>
</clipPath>
</defs>
</svg>
